<svg width="260" height="185" viewBox="0 0 260 185" fill="none" xmlns="http://www.w3.org/2000/svg">
<g clip-path="url(#clip0_368_836)">
<path d="M193.6 94.941H106.991C106.566 94.9405 106.158 94.7713 105.858 94.4707C105.557 94.17 105.388 93.7623 105.387 93.3371V53.8899C105.388 53.4646 105.557 53.057 105.858 52.7563C106.158 52.4556 106.566 52.2865 106.991 52.286H193.6C194.025 52.2865 194.433 52.4556 194.734 52.7563C195.034 53.057 195.203 53.4646 195.204 53.8899V93.3371C195.203 93.7623 195.034 94.17 194.734 94.4707C194.433 94.7713 194.025 94.9405 193.6 94.941Z" fill="white"/>
<path d="M193.6 94.941H106.991C106.566 94.9405 106.158 94.7713 105.858 94.4707C105.557 94.17 105.388 93.7623 105.387 93.3371V53.8899C105.388 53.4646 105.557 53.057 105.858 52.7563C106.158 52.4556 106.566 52.2865 106.991 52.286H193.6C194.025 52.2865 194.433 52.4556 194.734 52.7563C195.034 53.057 195.203 53.4646 195.204 53.8899V93.3371C195.203 93.7623 195.034 94.17 194.734 94.4707C194.433 94.7713 194.025 94.9405 193.6 94.941ZM106.991 52.9275C106.736 52.9278 106.491 53.0293 106.311 53.2097C106.131 53.3901 106.029 53.6347 106.029 53.8899V93.3371C106.029 93.5923 106.131 93.8369 106.311 94.0173C106.491 94.1977 106.736 94.2992 106.991 94.2994H193.6C193.855 94.2992 194.1 94.1977 194.28 94.0173C194.461 93.8369 194.562 93.5923 194.562 93.3371V53.8899C194.562 53.6347 194.461 53.3901 194.28 53.2097C194.1 53.0293 193.855 52.9278 193.6 52.9275H106.991Z" fill="#3F3D56"/>
<path d="M118.218 71.368C121.939 71.368 124.954 68.3521 124.954 64.6318C124.954 60.9114 121.939 57.8955 118.218 57.8955C114.498 57.8955 111.482 60.9114 111.482 64.6318C111.482 68.3521 114.498 71.368 118.218 71.368Z" fill="#6C63FF"/>
<path d="M133.776 60.141C133.478 60.141 133.192 60.2592 132.982 60.4698C132.771 60.6803 132.653 60.9659 132.653 61.2637C132.653 61.5614 132.771 61.847 132.982 62.0575C133.192 62.2681 133.478 62.3864 133.776 62.3864H186.703C187.001 62.3864 187.287 62.2681 187.497 62.0575C187.708 61.847 187.826 61.5614 187.826 61.2637C187.826 60.9659 187.708 60.6803 187.497 60.4698C187.287 60.2592 187.001 60.141 186.703 60.141H133.776Z" fill="#E6E6E6"/>
<path d="M133.776 66.8772C133.478 66.8772 133.192 66.9955 132.982 67.206C132.771 67.4166 132.653 67.7021 132.653 67.9999C132.653 68.2976 132.771 68.5832 132.982 68.7938C133.192 69.0043 133.478 69.1226 133.776 69.1226H156.551C156.848 69.1226 157.134 69.0043 157.344 68.7938C157.555 68.5832 157.673 68.2976 157.673 67.9999C157.673 67.7021 157.555 67.4166 157.344 67.206C157.134 66.9955 156.848 66.8772 156.551 66.8772H133.776Z" fill="#E6E6E6"/>
<path d="M113.051 77.6465C112.197 77.6465 111.502 78.1502 111.502 78.7692C111.502 79.3882 112.197 79.8919 113.051 79.8919H186.075C186.929 79.8919 187.624 79.3882 187.624 78.7692C187.624 78.1502 186.929 77.6465 186.075 77.6465H113.051Z" fill="#E6E6E6"/>
<path d="M113.051 84.3828C112.197 84.3828 111.502 84.8865 111.502 85.5055C111.502 86.1245 112.197 86.6282 113.051 86.6282H186.075C186.929 86.6282 187.624 86.1245 187.624 85.5055C187.624 84.8865 186.929 84.3828 186.075 84.3828H113.051Z" fill="#E6E6E6"/>
<path d="M258.396 42.655H171.787C171.362 42.6545 170.954 42.4854 170.654 42.1847C170.353 41.884 170.184 41.4763 170.184 41.0511V1.60387C170.184 1.17865 170.353 0.770988 170.654 0.470313C170.954 0.169638 171.362 0.000499177 171.787 0H258.396C258.821 0.000500024 259.229 0.169638 259.53 0.470313C259.83 0.770988 260 1.17865 260 1.60387V41.0511C260 41.4763 259.83 41.884 259.53 42.1847C259.229 42.4854 258.821 42.6545 258.396 42.655Z" fill="white"/>
<path d="M258.396 42.655H171.787C171.362 42.6545 170.954 42.4854 170.654 42.1847C170.353 41.884 170.184 41.4763 170.184 41.0511V1.60387C170.184 1.17865 170.353 0.770988 170.654 0.470313C170.954 0.169638 171.362 0.000499177 171.787 0H258.396C258.821 0.000500024 259.229 0.169638 259.53 0.470313C259.83 0.770988 260 1.17865 260 1.60387V41.0511C260 41.4763 259.83 41.884 259.53 42.1847C259.229 42.4854 258.821 42.6545 258.396 42.655ZM171.787 0.641546C171.532 0.641824 171.288 0.743301 171.107 0.923711C170.927 1.10412 170.825 1.34873 170.825 1.60387V41.0511C170.825 41.3063 170.927 41.5509 171.107 41.7313C171.288 41.9117 171.532 42.0132 171.787 42.0135H258.396C258.651 42.0132 258.896 41.9117 259.076 41.7313C259.257 41.5509 259.358 41.3063 259.359 41.0511V1.60387C259.358 1.34873 259.257 1.10412 259.076 0.923711C258.896 0.743301 258.651 0.641825 258.396 0.641546H171.787Z" fill="#3F3D56"/>
<path d="M183.014 19.082C186.735 19.082 189.751 16.0661 189.751 12.3458C189.751 8.62544 186.735 5.60953 183.014 5.60953C179.294 5.60953 176.278 8.62544 176.278 12.3458C176.278 16.0661 179.294 19.082 183.014 19.082Z" fill="#6C63FF"/>
<path d="M198.572 7.85493C198.274 7.85493 197.988 7.97322 197.778 8.18377C197.567 8.39432 197.449 8.67988 197.449 8.97764C197.449 9.2754 197.567 9.56096 197.778 9.77151C197.988 9.98206 198.274 10.1003 198.572 10.1003H251.499C251.797 10.1003 252.083 9.98206 252.293 9.77151C252.504 9.56096 252.622 9.2754 252.622 8.97764C252.622 8.67988 252.504 8.39432 252.293 8.18377C252.083 7.97322 251.797 7.85493 251.499 7.85493H198.572Z" fill="#E6E6E6"/>
<path d="M198.572 14.5912C198.274 14.5912 197.988 14.7095 197.778 14.92C197.567 15.1306 197.449 15.4161 197.449 15.7139C197.449 16.0116 197.567 16.2972 197.778 16.5077C197.988 16.7183 198.274 16.8366 198.572 16.8366H221.347C221.644 16.8366 221.93 16.7183 222.14 16.5077C222.351 16.2972 222.469 16.0116 222.469 15.7139C222.469 15.4161 222.351 15.1306 222.14 14.92C221.93 14.7095 221.644 14.5912 221.347 14.5912H198.572Z" fill="#E6E6E6"/>
<path d="M177.848 25.3604C176.993 25.3604 176.299 25.8642 176.299 26.4831C176.299 27.1021 176.993 27.6059 177.848 27.6059H250.871C251.725 27.6059 252.42 27.1021 252.42 26.4831C252.42 25.8642 251.725 25.3604 250.871 25.3604H177.848Z" fill="#E6E6E6"/>
<path d="M177.848 32.0967C176.993 32.0967 176.299 32.6004 176.299 33.2194C176.299 33.8384 176.993 34.3421 177.848 34.3421H250.871C251.725 34.3421 252.42 33.8384 252.42 33.2194C252.42 32.6004 251.725 32.0967 250.871 32.0967H177.848Z" fill="#E6E6E6"/>
<path d="M258.396 147.227H171.787C171.362 147.226 170.954 147.057 170.654 146.757C170.353 146.456 170.184 146.048 170.184 145.623V106.176C170.184 105.751 170.353 105.343 170.654 105.042C170.954 104.742 171.362 104.572 171.787 104.572H258.396C258.821 104.572 259.229 104.742 259.53 105.042C259.83 105.343 260 105.751 260 106.176V145.623C260 146.048 259.83 146.456 259.53 146.757C259.229 147.057 258.821 147.226 258.396 147.227Z" fill="white"/>
<path d="M258.396 147.227H171.787C171.362 147.226 170.954 147.057 170.654 146.757C170.353 146.456 170.184 146.048 170.184 145.623V106.176C170.184 105.751 170.353 105.343 170.654 105.042C170.954 104.742 171.362 104.572 171.787 104.572H258.396C258.821 104.572 259.229 104.742 259.53 105.042C259.83 105.343 260 105.751 260 106.176V145.623C260 146.048 259.83 146.456 259.53 146.757C259.229 147.057 258.821 147.226 258.396 147.227ZM171.787 105.214C171.532 105.214 171.288 105.315 171.107 105.496C170.927 105.676 170.825 105.921 170.825 106.176V145.623C170.825 145.878 170.927 146.123 171.107 146.303C171.288 146.484 171.532 146.585 171.787 146.585H258.396C258.651 146.585 258.896 146.484 259.076 146.303C259.257 146.123 259.358 145.878 259.359 145.623V106.176C259.358 105.921 259.257 105.676 259.076 105.496C258.896 105.315 258.651 105.214 258.396 105.214H171.787Z" fill="#3F3D56"/>
<path d="M183.014 123.654C186.735 123.654 189.751 120.638 189.751 116.918C189.751 113.197 186.735 110.182 183.014 110.182C179.294 110.182 176.278 113.197 176.278 116.918C176.278 120.638 179.294 123.654 183.014 123.654Z" fill="#6C63FF"/>
<path d="M198.572 112.427C198.274 112.427 197.988 112.545 197.778 112.756C197.567 112.966 197.449 113.252 197.449 113.55C197.449 113.847 197.567 114.133 197.778 114.343C197.988 114.554 198.274 114.672 198.572 114.672H251.499C251.797 114.672 252.083 114.554 252.293 114.343C252.504 114.133 252.622 113.847 252.622 113.55C252.622 113.252 252.504 112.966 252.293 112.756C252.083 112.545 251.797 112.427 251.499 112.427H198.572Z" fill="#E6E6E6"/>
<path d="M198.572 119.163C198.274 119.163 197.988 119.281 197.778 119.492C197.567 119.703 197.449 119.988 197.449 120.286C197.449 120.584 197.567 120.869 197.778 121.08C197.988 121.29 198.274 121.409 198.572 121.409H221.347C221.644 121.409 221.93 121.29 222.14 121.08C222.351 120.869 222.469 120.584 222.469 120.286C222.469 119.988 222.351 119.703 222.14 119.492C221.93 119.281 221.644 119.163 221.347 119.163H198.572Z" fill="#E6E6E6"/>
<path d="M177.848 129.932C176.993 129.932 176.299 130.436 176.299 131.055C176.299 131.674 176.993 132.178 177.848 132.178H250.871C251.725 132.178 252.42 131.674 252.42 131.055C252.42 130.436 251.725 129.932 250.871 129.932H177.848Z" fill="#E6E6E6"/>
<path d="M177.848 136.669C176.993 136.669 176.299 137.172 176.299 137.791C176.299 138.41 176.993 138.914 177.848 138.914H250.871C251.725 138.914 252.42 138.41 252.42 137.791C252.42 137.172 251.725 136.669 250.871 136.669H177.848Z" fill="#E6E6E6"/>
<path d="M83.519 179.629L87.8129 178.382L85.0456 161.226L78.7084 163.067L83.519 179.629Z" fill="#9F616A"/>
<path d="M97.2519 179.963L83.7572 183.883L82.2427 178.669L91.1517 176.082C92.3679 175.728 93.6746 175.873 94.7844 176.483C95.8942 177.093 96.7162 178.119 97.0695 179.335L97.2519 179.963Z" fill="#2F2E41"/>
<path d="M39.1462 179.731L43.6174 179.731L45.7445 162.485L39.1452 162.485L39.1462 179.731Z" fill="#9F616A"/>
<path d="M52.2406 183.883L38.1881 183.883L38.1879 178.454L47.4651 178.453C48.7316 178.453 49.9462 178.956 50.8418 179.852C51.7374 180.747 52.2405 181.962 52.2406 183.228L52.2406 183.883Z" fill="#2F2E41"/>
<path d="M49.6665 119.696C50.0077 119.282 50.2539 118.799 50.388 118.28C50.5221 117.761 50.5408 117.218 50.4427 116.691C50.3446 116.164 50.1321 115.665 49.8202 115.229C49.5082 114.793 49.1045 114.431 48.6374 114.167L50.959 101.343L44.7314 104.005L43.4815 115.775C43.0914 116.589 43.0135 117.518 43.2625 118.385C43.5114 119.253 44.07 119.999 44.8324 120.483C45.5948 120.966 46.508 121.153 47.3989 121.008C48.2899 120.863 49.0967 120.396 49.6665 119.696Z" fill="#9F616A"/>
<path d="M43.7085 111.888L49.8402 113.133L52.6795 92.4314L52.6889 92.4105L61.6843 72.2529C61.6891 72.2347 62.7703 68.8014 61.6111 66.5791C61.4027 66.1756 61.1135 65.8194 60.7616 65.5324C60.4097 65.2454 60.0026 65.0339 59.5654 64.911C55.6052 63.6933 53.7866 66.5557 53.6342 66.8101L46.3278 88.9909L43.7085 111.888Z" fill="#6C63FF"/>
<path d="M78.1581 176.254L70.8297 143.642L60.4651 121.841L49.2268 175.495L32.4841 173.634L47.8392 116.967C47.5996 116.1 44.2425 103.165 54.4333 96.4403L56.1954 90.5163L71.3267 94.0446L71.1431 108.18L83.894 137.325L94.8913 171.048L78.1581 176.254Z" fill="#2F2E41"/>
<path d="M71.8652 95.9883L56.2278 94.4991L56.5966 84.9104C56.0382 83.9117 48.6849 70.5021 53.5339 65.622L55.0053 63.415L55.0388 63.3962C55.0984 63.3625 61.0539 60.1225 66.1853 66.7197C67.3563 68.1883 68.6176 69.5825 69.9618 70.8944C73.2509 74.2159 75.426 76.4118 72.4175 82.1785L71.8652 95.9883Z" fill="#6C63FF"/>
<path d="M67.0557 59.4522C71.3966 57.0793 72.9919 51.6366 70.6189 47.2957C68.246 42.9548 62.8033 41.3595 58.4624 43.7324C54.1215 46.1054 52.5262 51.548 54.8991 55.889C57.2721 60.2299 62.7148 61.8252 67.0557 59.4522Z" fill="#9F616A"/>
<path d="M66.4598 119.197C66.6852 118.71 66.8011 118.18 66.7995 117.644C66.7979 117.108 66.6788 116.579 66.4505 116.094C66.2222 115.609 65.8903 115.179 65.4782 114.836C65.0661 114.493 64.5838 114.245 64.0653 114.108L63.0667 101.114L57.7151 105.265L59.4839 116.968C59.3125 117.854 59.4721 118.773 59.9325 119.549C60.3929 120.326 61.1221 120.906 61.982 121.181C62.8418 121.456 63.7726 121.405 64.5979 121.04C65.4232 120.674 66.0856 120.018 66.4598 119.197Z" fill="#9F616A"/>
<path d="M58.4441 113.487L55.1387 90.3484L56.6039 66.9584C56.6142 66.9207 57.6899 63.1724 62.1889 63.3694C62.6857 63.379 63.1751 63.4906 63.6268 63.6974C64.0785 63.9042 64.4829 64.2017 64.8147 64.5714C66.5886 66.5285 66.4096 70.1392 66.4012 70.2919L62.8004 92.0644L65.3265 113.105L58.4441 113.487Z" fill="#6C63FF"/>
<path d="M74.5188 44.735C74.201 42.8916 72.6697 41.4416 70.9471 40.7126C69.2243 39.9836 67.316 39.8541 65.4484 39.7501C63.8616 39.6252 62.2672 39.6302 60.6813 39.7649C60.8926 39.4899 61.0363 39.1691 61.1009 38.8284C61.237 38.0382 60.7643 37.1438 59.9666 36.97C59.3928 36.845 58.8063 37.089 58.2388 37.2558C57.6712 37.4225 56.9847 37.4887 56.563 37.0935C56.0811 36.6418 56.1964 35.825 55.7846 35.3114C55.3998 34.8317 54.6467 34.7656 54.0572 34.9917C53.4854 35.2578 52.975 35.6395 52.5581 36.1126L52.0252 36.6404C51.9789 36.6059 51.9281 36.5747 51.883 36.5393C50.4787 35.4356 49.7794 33.8157 50.5764 32.4544C50.174 33.145 49.9796 33.9372 50.0165 34.7356C50.0534 35.5341 50.3201 36.3049 50.7844 36.9555C50.9076 37.1356 51.0418 37.3079 51.1863 37.4714C50.9077 37.7473 50.6291 38.0233 50.3506 38.2992C49.9211 38.7246 49.4564 39.2527 49.5656 39.833C49.6801 40.4421 50.4179 40.7705 51.0501 40.6793C51.5643 40.575 52.0463 40.3499 52.4564 40.0226C51.8857 40.4258 51.4282 40.9688 51.1276 41.5996C50.9559 41.9603 50.8872 42.3615 50.9291 42.7588C50.971 43.1561 51.1219 43.5341 51.3651 43.851C51.7164 44.2349 52.2008 44.4704 52.7197 44.5095C51.8143 45.8324 51.2248 47.3456 50.9967 48.9324C50.7502 50.9698 51.0849 53.0353 51.9623 54.8906C52.8396 56.7458 54.2238 58.3151 55.955 59.4172C56.8964 60.0502 57.9991 60.4011 59.1331 60.4285C60.2602 60.4055 61.4204 59.8416 61.9316 58.8371C62.4643 57.7903 62.2159 56.5364 61.9965 55.3826C61.7769 54.2288 61.6271 52.9317 62.3038 51.9716C62.9804 51.0116 64.8089 50.9532 65.1165 52.0867C65.7398 51.0189 66.6809 50.1723 67.8085 49.665C68.9361 49.1576 70.1939 49.015 71.4065 49.2568L71.8941 50.0416C73.7576 49.8796 74.8366 46.5783 74.5188 44.735Z" fill="#2F2E41"/>
<path d="M122.535 184.18H0.320773C0.235699 184.18 0.154109 184.146 0.093952 184.086C0.0337954 184.026 0 183.944 0 183.859C0 183.774 0.0337954 183.693 0.093952 183.632C0.154109 183.572 0.235699 183.538 0.320773 183.538H122.535C122.62 183.538 122.702 183.572 122.762 183.632C122.822 183.693 122.856 183.774 122.856 183.859C122.856 183.944 122.822 184.026 122.762 184.086C122.702 184.146 122.62 184.18 122.535 184.18Z" fill="#CCCCCC"/>
</g>
<defs>
<clipPath id="clip0_368_836">
<rect width="260" height="184.18" fill="white"/>
</clipPath>
</defs>
</svg>
