<svg width="242" height="223" viewBox="0 0 242 223" fill="none" xmlns="http://www.w3.org/2000/svg">
<g clip-path="url(#clip0_368_872)">
<path d="M110.846 52.8273H109.624V19.3663C109.624 14.23 107.584 9.30415 103.952 5.67226C100.32 2.04037 95.3943 -7.15761e-06 90.258 -1.52587e-05H19.3663C16.8231 -2.16768e-05 14.3048 0.500896 11.9552 1.47414C9.60552 2.44738 7.4706 3.87389 5.67226 5.67221C3.87393 7.47053 2.44741 9.60545 1.47416 11.9551C0.500905 14.3047 -2.49018e-05 16.823 -3.05176e-05 19.3662V202.936C-3.25232e-05 205.479 0.500889 207.997 1.47414 210.347C2.44738 212.697 3.87389 214.832 5.67222 216.63C7.47055 218.428 9.60547 219.855 11.9551 220.828C14.3047 221.801 16.823 222.302 19.3663 222.302H90.2579C95.3942 222.302 100.32 220.262 103.952 216.63C107.584 212.998 109.624 208.072 109.624 202.936V76.6454H110.846V52.8273Z" fill="#E6E6E6"/>
<path d="M91.0393 5.03845H81.7856C82.2112 6.08177 82.3736 7.21373 82.2586 8.33462C82.1437 9.45551 81.7548 10.5309 81.1263 11.4661C80.4978 12.4013 79.6489 13.1676 78.6545 13.6975C77.6601 14.2273 76.5507 14.5045 75.4239 14.5046H34.811C33.6843 14.5045 32.5748 14.2273 31.5804 13.6975C30.586 13.1676 29.7371 12.4013 29.1086 11.4661C28.4801 10.5309 28.0913 9.45549 27.9763 8.3346C27.8613 7.21371 28.0238 6.08174 28.4493 5.03842H19.8063C15.9706 5.03842 12.292 6.56214 9.57977 9.27439C6.86751 11.9866 5.34379 15.6652 5.34378 19.5009V202.801C5.34378 204.7 5.71786 206.581 6.44467 208.336C7.17148 210.09 8.23678 211.685 9.57975 213.028C10.9227 214.371 12.5171 215.436 14.2717 216.163C16.0264 216.89 17.9071 217.264 19.8063 217.264H91.0393C92.9386 217.264 94.8192 216.89 96.5739 216.163C98.3286 215.436 99.9229 214.371 101.266 213.028C102.609 211.685 103.674 210.09 104.401 208.336C105.128 206.581 105.502 204.7 105.502 202.801V19.501C105.502 17.6017 105.128 15.7211 104.401 13.9664C103.674 12.2117 102.609 10.6174 101.266 9.27441C99.9229 7.93144 98.3286 6.86614 96.5739 6.13933C94.8192 5.41252 92.9386 5.03844 91.0393 5.03845Z" fill="white"/>
<path d="M14.1866 91.3086C14.1056 91.3086 14.0279 91.2765 13.9707 91.2192C13.9134 91.1619 13.8812 91.0842 13.8812 91.0032V80.3123C13.8812 80.2313 13.9134 80.1536 13.9707 80.0963C14.0279 80.039 14.1056 80.0069 14.1866 80.0069C14.2677 80.0069 14.3454 80.039 14.4026 80.0963C14.4599 80.1536 14.4921 80.2313 14.4921 80.3123V91.0032C14.4921 91.0842 14.4599 91.1619 14.4026 91.2192C14.3454 91.2765 14.2677 91.3086 14.1866 91.3086Z" fill="#CCCCCC"/>
<path d="M16.3248 92.9886C16.2438 92.9886 16.1661 92.9564 16.1088 92.8991C16.0515 92.8418 16.0193 92.7641 16.0193 92.6831V78.6323C16.0193 78.5513 16.0515 78.4736 16.1088 78.4163C16.1661 78.359 16.2438 78.3268 16.3248 78.3268C16.4058 78.3268 16.4835 78.359 16.5408 78.4163C16.5981 78.4736 16.6303 78.5513 16.6303 78.6323V92.6831C16.6303 92.7641 16.5981 92.8418 16.5408 92.8991C16.4835 92.9564 16.4058 92.9886 16.3248 92.9886Z" fill="#CCCCCC"/>
<path d="M18.463 94.0577C18.382 94.0577 18.3043 94.0255 18.247 93.9682C18.1897 93.9109 18.1575 93.8332 18.1575 93.7522V77.5632C18.1575 77.4822 18.1897 77.4045 18.247 77.3472C18.3043 77.2899 18.382 77.2578 18.463 77.2578C18.544 77.2578 18.6217 77.2899 18.679 77.3472C18.7363 77.4045 18.7684 77.4822 18.7684 77.5632V93.7522C18.7684 93.8332 18.7363 93.9109 18.679 93.9682C18.6217 94.0255 18.544 94.0577 18.463 94.0577Z" fill="#CCCCCC"/>
<path d="M20.6012 96.8067C20.5202 96.8067 20.4425 96.7745 20.3852 96.7173C20.3279 96.66 20.2957 96.5823 20.2957 96.5013V74.8141C20.2957 74.7331 20.3279 74.6554 20.3852 74.5981C20.4425 74.5408 20.5202 74.5087 20.6012 74.5087C20.6822 74.5087 20.7599 74.5408 20.8172 74.5981C20.8744 74.6554 20.9066 74.7331 20.9066 74.8141V96.5013C20.9066 96.5823 20.8744 96.66 20.8172 96.7173C20.7599 96.7745 20.6822 96.8067 20.6012 96.8067Z" fill="#CCCCCC"/>
<path d="M22.7394 100.93C22.6583 100.93 22.5806 100.898 22.5234 100.841C22.4661 100.784 22.4339 100.706 22.4339 100.625V70.6905C22.4339 70.6095 22.4661 70.5318 22.5234 70.4745C22.5806 70.4172 22.6583 70.3851 22.7394 70.3851C22.8204 70.3851 22.8981 70.4172 22.9553 70.4745C23.0126 70.5318 23.0448 70.6095 23.0448 70.6905V100.625C23.0448 100.706 23.0126 100.784 22.9553 100.841C22.8981 100.898 22.8204 100.93 22.7394 100.93Z" fill="#CCCCCC"/>
<path d="M24.8775 96.8067C24.7965 96.8067 24.7188 96.7745 24.6615 96.7173C24.6042 96.66 24.5721 96.5823 24.5721 96.5013V74.8141C24.5721 74.7331 24.6042 74.6554 24.6615 74.5981C24.7188 74.5408 24.7965 74.5087 24.8775 74.5087C24.9585 74.5087 25.0362 74.5408 25.0935 74.5981C25.1508 74.6554 25.183 74.7331 25.183 74.8141V96.5013C25.183 96.5823 25.1508 96.66 25.0935 96.7173C25.0362 96.7745 24.9585 96.8067 24.8775 96.8067Z" fill="#CCCCCC"/>
<path d="M27.0157 98.7922C26.9347 98.7922 26.857 98.76 26.7997 98.7028C26.7424 98.6455 26.7102 98.5678 26.7102 98.4868V72.8287C26.7102 72.7477 26.7424 72.67 26.7997 72.6127C26.857 72.5554 26.9347 72.5233 27.0157 72.5233C27.0967 72.5233 27.1744 72.5554 27.2317 72.6127C27.289 72.67 27.3211 72.7477 27.3211 72.8287V98.4868C27.3211 98.5678 27.289 98.6455 27.2317 98.7028C27.1744 98.76 27.0967 98.7922 27.0157 98.7922Z" fill="#CCCCCC"/>
<path d="M29.1539 93.5995C29.0729 93.5995 28.9952 93.5673 28.9379 93.51C28.8806 93.4528 28.8484 93.3751 28.8484 93.2941V78.0214C28.8484 77.9404 28.8806 77.8627 28.9379 77.8054C28.9952 77.7481 29.0729 77.7159 29.1539 77.7159C29.2349 77.7159 29.3126 77.7481 29.3699 77.8054C29.4271 77.8627 29.4593 77.9404 29.4593 78.0214V93.2941C29.4593 93.3751 29.4271 93.4528 29.3699 93.51C29.3126 93.5673 29.2349 93.5995 29.1539 93.5995Z" fill="#CCCCCC"/>
<path d="M31.292 94.8213C31.211 94.8213 31.1333 94.7891 31.076 94.7319C31.0187 94.6746 30.9866 94.5969 30.9866 94.5159V76.7996C30.9866 76.7186 31.0187 76.6409 31.076 76.5836C31.1333 76.5263 31.211 76.4941 31.292 76.4941C31.373 76.4941 31.4507 76.5263 31.508 76.5836C31.5653 76.6409 31.5975 76.7186 31.5975 76.7996V94.5159C31.5975 94.5969 31.5653 94.6746 31.508 94.7319C31.4507 94.7891 31.373 94.8213 31.292 94.8213Z" fill="#CCCCCC"/>
<path d="M33.4302 91.3086C33.3492 91.3086 33.2715 91.2765 33.2142 91.2192C33.1569 91.1619 33.1248 91.0842 33.1248 91.0032V80.3123C33.1248 80.2313 33.1569 80.1536 33.2142 80.0963C33.2715 80.039 33.3492 80.0069 33.4302 80.0069C33.5112 80.0069 33.5889 80.039 33.6462 80.0963C33.7035 80.1536 33.7357 80.2313 33.7357 80.3123V91.0032C33.7357 91.0842 33.7035 91.1619 33.6462 91.2192C33.5889 91.2765 33.5112 91.3086 33.4302 91.3086Z" fill="#CCCCCC"/>
<path d="M35.2629 91.3086C35.1819 91.3086 35.1042 91.2765 35.0469 91.2192C34.9896 91.1619 34.9575 91.0842 34.9575 91.0032V80.3123C34.9575 80.2313 34.9896 80.1536 35.0469 80.0963C35.1042 80.039 35.1819 80.0069 35.2629 80.0069C35.3439 80.0069 35.4216 80.039 35.4789 80.0963C35.5362 80.1536 35.5684 80.2313 35.5684 80.3123V91.0032C35.5684 91.0842 35.5362 91.1619 35.4789 91.2192C35.4216 91.2765 35.3439 91.3086 35.2629 91.3086Z" fill="#CCCCCC"/>
<path d="M37.4011 92.9886C37.3201 92.9886 37.2424 92.9564 37.1851 92.8991C37.1278 92.8418 37.0956 92.7641 37.0956 92.6831V78.6323C37.0956 78.5513 37.1278 78.4736 37.1851 78.4163C37.2424 78.359 37.3201 78.3268 37.4011 78.3268C37.4821 78.3268 37.5598 78.359 37.6171 78.4163C37.6744 78.4736 37.7065 78.5513 37.7065 78.6323V92.6831C37.7065 92.7641 37.6744 92.8418 37.6171 92.8991C37.5598 92.9564 37.4821 92.9886 37.4011 92.9886Z" fill="#CCCCCC"/>
<path d="M39.5393 94.0577C39.4583 94.0577 39.3806 94.0255 39.3233 93.9682C39.266 93.9109 39.2338 93.8332 39.2338 93.7522V77.5632C39.2338 77.4822 39.266 77.4045 39.3233 77.3472C39.3806 77.2899 39.4583 77.2578 39.5393 77.2578C39.6203 77.2578 39.698 77.2899 39.7553 77.3472C39.8125 77.4045 39.8447 77.4822 39.8447 77.5632V93.7522C39.8447 93.8332 39.8125 93.9109 39.7553 93.9682C39.698 94.0255 39.6203 94.0577 39.5393 94.0577Z" fill="#CCCCCC"/>
<path d="M41.6774 96.8067C41.5964 96.8067 41.5187 96.7745 41.4614 96.7173C41.4041 96.66 41.3719 96.5823 41.3719 96.5013V74.8141C41.3719 74.7331 41.4041 74.6554 41.4614 74.5981C41.5187 74.5408 41.5964 74.5087 41.6774 74.5087C41.7584 74.5087 41.8361 74.5408 41.8934 74.5981C41.9507 74.6554 41.9829 74.7331 41.9829 74.8141V96.5013C41.9829 96.5823 41.9507 96.66 41.8934 96.7173C41.8361 96.7745 41.7584 96.8067 41.6774 96.8067Z" fill="#CCCCCC"/>
<path d="M43.8156 105.818C43.7346 105.818 43.6569 105.785 43.5996 105.728C43.5423 105.671 43.5101 105.593 43.5101 105.512V65.8033C43.5101 65.7222 43.5423 65.6445 43.5996 65.5873C43.6569 65.53 43.7346 65.4978 43.8156 65.4978C43.8966 65.4978 43.9743 65.53 44.0316 65.5873C44.0889 65.6445 44.121 65.7222 44.121 65.8033V105.512C44.121 105.593 44.0889 105.671 44.0316 105.728C43.9743 105.785 43.8966 105.818 43.8156 105.818Z" fill="#CCCCCC"/>
<path d="M45.9538 96.8067C45.8728 96.8067 45.7951 96.7745 45.7378 96.7173C45.6805 96.66 45.6483 96.5823 45.6483 96.5013V74.8141C45.6483 74.7331 45.6805 74.6554 45.7378 74.5981C45.7951 74.5408 45.8728 74.5087 45.9538 74.5087C46.0348 74.5087 46.1125 74.5408 46.1698 74.5981C46.2271 74.6554 46.2593 74.7331 46.2593 74.8141V96.5013C46.2593 96.5823 46.2271 96.66 46.1698 96.7173C46.1125 96.7745 46.0348 96.8067 45.9538 96.8067Z" fill="#CCCCCC"/>
<path d="M48.092 98.7922C48.011 98.7922 47.9333 98.76 47.876 98.7028C47.8187 98.6455 47.7865 98.5678 47.7865 98.4868V72.8287C47.7865 72.7477 47.8187 72.67 47.876 72.6127C47.9333 72.5554 48.011 72.5233 48.092 72.5233C48.173 72.5233 48.2507 72.5554 48.308 72.6127C48.3652 72.67 48.3974 72.7477 48.3974 72.8287V98.4868C48.3974 98.5678 48.3652 98.6455 48.308 98.7028C48.2507 98.76 48.173 98.7922 48.092 98.7922Z" fill="#CCCCCC"/>
<path d="M50.2301 93.5995C50.1491 93.5995 50.0714 93.5673 50.0141 93.51C49.9569 93.4528 49.9247 93.3751 49.9247 93.2941V78.0214C49.9247 77.9404 49.9569 77.8627 50.0141 77.8054C50.0714 77.7481 50.1491 77.7159 50.2301 77.7159C50.3111 77.7159 50.3888 77.7481 50.4461 77.8054C50.5034 77.8627 50.5356 77.9404 50.5356 78.0214V93.2941C50.5356 93.3751 50.5034 93.4528 50.4461 93.51C50.3888 93.5673 50.3111 93.5995 50.2301 93.5995Z" fill="#CCCCCC"/>
<path d="M52.3683 94.8213C52.2873 94.8213 52.2096 94.7891 52.1523 94.7319C52.095 94.6746 52.0628 94.5969 52.0628 94.5159V76.7996C52.0628 76.7186 52.095 76.6409 52.1523 76.5836C52.2096 76.5263 52.2873 76.4941 52.3683 76.4941C52.4493 76.4941 52.527 76.5263 52.5843 76.5836C52.6416 76.6409 52.6737 76.7186 52.6737 76.7996V94.5159C52.6737 94.5969 52.6416 94.6746 52.5843 94.7319C52.527 94.7891 52.4493 94.8213 52.3683 94.8213Z" fill="#CCCCCC"/>
<path d="M54.5065 91.3086C54.4255 91.3086 54.3478 91.2765 54.2905 91.2192C54.2332 91.1619 54.201 91.0842 54.201 91.0032V80.3123C54.201 80.2313 54.2332 80.1536 54.2905 80.0963C54.3478 80.039 54.4255 80.0069 54.5065 80.0069C54.5875 80.0069 54.6652 80.039 54.7225 80.0963C54.7797 80.1536 54.8119 80.2313 54.8119 80.3123V91.0032C54.8119 91.0842 54.7797 91.1619 54.7225 91.2192C54.6652 91.2765 54.5875 91.3086 54.5065 91.3086Z" fill="#CCCCCC"/>
<path d="M56.3392 91.3086C56.2582 91.3086 56.1805 91.2765 56.1232 91.2192C56.0659 91.1619 56.0337 91.0842 56.0337 91.0032V80.3123C56.0337 80.2313 56.0659 80.1536 56.1232 80.0963C56.1805 80.039 56.2582 80.0069 56.3392 80.0069C56.4202 80.0069 56.4979 80.039 56.5552 80.0963C56.6124 80.1536 56.6446 80.2313 56.6446 80.3123V91.0032C56.6446 91.0842 56.6124 91.1619 56.5552 91.2192C56.4979 91.2765 56.4202 91.3086 56.3392 91.3086Z" fill="#CCCCCC"/>
<path d="M58.4774 92.9886C58.3963 92.9886 58.3186 92.9564 58.2614 92.8991C58.2041 92.8418 58.1719 92.7641 58.1719 92.6831V78.6323C58.1719 78.5513 58.2041 78.4736 58.2614 78.4163C58.3186 78.359 58.3963 78.3268 58.4774 78.3268C58.5584 78.3268 58.6361 78.359 58.6933 78.4163C58.7506 78.4736 58.7828 78.5513 58.7828 78.6323V92.6831C58.7828 92.7641 58.7506 92.8418 58.6933 92.8991C58.6361 92.9564 58.5584 92.9886 58.4774 92.9886Z" fill="#CCCCCC"/>
<path d="M60.6156 94.0577C60.5346 94.0577 60.4569 94.0255 60.3996 93.9682C60.3423 93.9109 60.3101 93.8332 60.3101 93.7522V77.5632C60.3101 77.4822 60.3423 77.4045 60.3996 77.3472C60.4569 77.2899 60.5346 77.2578 60.6156 77.2578C60.6966 77.2578 60.7743 77.2899 60.8316 77.3472C60.8888 77.4045 60.921 77.4822 60.921 77.5632V93.7522C60.921 93.8332 60.8888 93.9109 60.8316 93.9682C60.7743 94.0255 60.6966 94.0577 60.6156 94.0577Z" fill="#CCCCCC"/>
<path d="M62.7537 96.8067C62.6727 96.8067 62.595 96.7745 62.5377 96.7173C62.4804 96.66 62.4483 96.5823 62.4483 96.5013V74.8141C62.4483 74.7331 62.4804 74.6554 62.5377 74.5981C62.595 74.5408 62.6727 74.5087 62.7537 74.5087C62.8347 74.5087 62.9124 74.5408 62.9697 74.5981C63.027 74.6554 63.0592 74.7331 63.0592 74.8141V96.5013C63.0592 96.5823 63.027 96.66 62.9697 96.7173C62.9124 96.7745 62.8347 96.8067 62.7537 96.8067Z" fill="#CCCCCC"/>
<path d="M64.8918 100.93C64.8108 100.93 64.7331 100.898 64.6759 100.841C64.6186 100.784 64.5864 100.706 64.5864 100.625V70.6905C64.5864 70.6095 64.6186 70.5318 64.6759 70.4745C64.7331 70.4172 64.8108 70.3851 64.8918 70.3851C64.9729 70.3851 65.0505 70.4172 65.1078 70.4745C65.1651 70.5318 65.1973 70.6095 65.1973 70.6905V100.625C65.1973 100.706 65.1651 100.784 65.1078 100.841C65.0505 100.898 64.9729 100.93 64.8918 100.93Z" fill="#CCCCCC"/>
<path d="M66.4192 114.447C66.3382 114.447 66.2605 114.415 66.2032 114.357C66.1459 114.3 66.1137 114.222 66.1137 114.141V57.1742C66.1137 57.0932 66.1459 57.0155 66.2032 56.9582C66.2605 56.901 66.3382 56.8688 66.4192 56.8688C66.5002 56.8688 66.5779 56.901 66.6351 56.9582C66.6924 57.0155 66.7246 57.0932 66.7246 57.1742V114.141C66.7246 114.222 66.6924 114.3 66.6351 114.357C66.5779 114.415 66.5002 114.447 66.4192 114.447Z" fill="#6C63FF"/>
<path d="M67.03 96.8067C66.949 96.8067 66.8713 96.7745 66.814 96.7173C66.7568 96.66 66.7246 96.5823 66.7246 96.5013V74.8141C66.7246 74.7331 66.7568 74.6554 66.814 74.5981C66.8713 74.5408 66.949 74.5087 67.03 74.5087C67.111 74.5087 67.1887 74.5408 67.246 74.5981C67.3033 74.6554 67.3355 74.7331 67.3355 74.8141V96.5013C67.3355 96.5823 67.3033 96.66 67.246 96.7173C67.1887 96.7745 67.111 96.8067 67.03 96.8067Z" fill="#CCCCCC"/>
<path d="M69.1682 98.7922C69.0872 98.7922 69.0095 98.76 68.9522 98.7028C68.8949 98.6455 68.8628 98.5678 68.8628 98.4868V72.8287C68.8628 72.7477 68.8949 72.67 68.9522 72.6127C69.0095 72.5554 69.0872 72.5233 69.1682 72.5233C69.2492 72.5233 69.3269 72.5554 69.3842 72.6127C69.4415 72.67 69.4737 72.7477 69.4737 72.8287V98.4868C69.4737 98.5678 69.4415 98.6455 69.3842 98.7028C69.3269 98.76 69.2492 98.7922 69.1682 98.7922Z" fill="#CCCCCC"/>
<path d="M71.3064 93.5995C71.2254 93.5995 71.1477 93.5673 71.0904 93.51C71.0331 93.4528 71.0009 93.3751 71.0009 93.2941V78.0214C71.0009 77.9404 71.0331 77.8627 71.0904 77.8054C71.1477 77.7481 71.2254 77.7159 71.3064 77.7159C71.3874 77.7159 71.4651 77.7481 71.5224 77.8054C71.5797 77.8627 71.6119 77.9404 71.6119 78.0214V93.2941C71.6119 93.3751 71.5797 93.4528 71.5224 93.51C71.4651 93.5673 71.3874 93.5995 71.3064 93.5995Z" fill="#CCCCCC"/>
<path d="M73.4446 94.8213C73.3635 94.8213 73.2858 94.7891 73.2286 94.7319C73.1713 94.6746 73.1391 94.5969 73.1391 94.5159V76.7996C73.1391 76.7186 73.1713 76.6409 73.2286 76.5836C73.2858 76.5263 73.3635 76.4941 73.4446 76.4941C73.5256 76.4941 73.6033 76.5263 73.6605 76.5836C73.7178 76.6409 73.75 76.7186 73.75 76.7996V94.5159C73.75 94.5969 73.7178 94.6746 73.6605 94.7319C73.6033 94.7891 73.5256 94.8213 73.4446 94.8213Z" fill="#CCCCCC"/>
<path d="M75.5827 91.3086C75.5017 91.3086 75.424 91.2765 75.3667 91.2192C75.3095 91.1619 75.2773 91.0842 75.2773 91.0032V80.3123C75.2773 80.2313 75.3095 80.1536 75.3667 80.0963C75.424 80.039 75.5017 80.0069 75.5827 80.0069C75.6637 80.0069 75.7414 80.039 75.7987 80.0963C75.856 80.1536 75.8882 80.2313 75.8882 80.3123V91.0032C75.8882 91.0842 75.856 91.1619 75.7987 91.2192C75.7414 91.2765 75.6637 91.3086 75.5827 91.3086Z" fill="#CCCCCC"/>
<path d="M77.4154 91.3086C77.3344 91.3086 77.2567 91.2765 77.1994 91.2192C77.1422 91.1619 77.11 91.0842 77.11 91.0032V80.3123C77.11 80.2313 77.1422 80.1536 77.1994 80.0963C77.2567 80.039 77.3344 80.0069 77.4154 80.0069C77.4964 80.0069 77.5741 80.039 77.6314 80.0963C77.6887 80.1536 77.7209 80.2313 77.7209 80.3123V91.0032C77.7209 91.0842 77.6887 91.1619 77.6314 91.2192C77.5741 91.2765 77.4964 91.3086 77.4154 91.3086Z" fill="#CCCCCC"/>
<path d="M79.5536 92.9886C79.4726 92.9886 79.3949 92.9564 79.3376 92.8991C79.2803 92.8418 79.2482 92.7641 79.2482 92.6831V78.6323C79.2482 78.5513 79.2803 78.4736 79.3376 78.4163C79.3949 78.359 79.4726 78.3268 79.5536 78.3268C79.6346 78.3268 79.7123 78.359 79.7696 78.4163C79.8269 78.4736 79.8591 78.5513 79.8591 78.6323V92.6831C79.8591 92.7641 79.8269 92.8418 79.7696 92.8991C79.7123 92.9564 79.6346 92.9886 79.5536 92.9886Z" fill="#CCCCCC"/>
<path d="M81.6918 94.0577C81.6108 94.0577 81.5331 94.0255 81.4758 93.9682C81.4185 93.9109 81.3864 93.8332 81.3864 93.7522V77.5632C81.3864 77.4822 81.4185 77.4045 81.4758 77.3472C81.5331 77.2899 81.6108 77.2578 81.6918 77.2578C81.7728 77.2578 81.8505 77.2899 81.9078 77.3472C81.9651 77.4045 81.9973 77.4822 81.9973 77.5632V93.7522C81.9973 93.8332 81.9651 93.9109 81.9078 93.9682C81.8505 94.0255 81.7728 94.0577 81.6918 94.0577Z" fill="#CCCCCC"/>
<path d="M83.83 96.8067C83.7489 96.8067 83.6712 96.7745 83.614 96.7173C83.5567 96.66 83.5245 96.5823 83.5245 96.5013V74.8141C83.5245 74.7331 83.5567 74.6554 83.614 74.5981C83.6712 74.5408 83.7489 74.5087 83.83 74.5087C83.911 74.5087 83.9887 74.5408 84.0459 74.5981C84.1032 74.6554 84.1354 74.7331 84.1354 74.8141V96.5013C84.1354 96.5823 84.1032 96.66 84.0459 96.7173C83.9887 96.7745 83.911 96.8067 83.83 96.8067Z" fill="#CCCCCC"/>
<path d="M85.9681 105.818C85.8871 105.818 85.8094 105.785 85.7521 105.728C85.6949 105.671 85.6627 105.593 85.6627 105.512V65.8033C85.6627 65.7222 85.6949 65.6445 85.7521 65.5873C85.8094 65.53 85.8871 65.4978 85.9681 65.4978C86.0492 65.4978 86.1268 65.53 86.1841 65.5873C86.2414 65.6445 86.2736 65.7222 86.2736 65.8033V105.512C86.2736 105.593 86.2414 105.671 86.1841 105.728C86.1268 105.785 86.0492 105.818 85.9681 105.818Z" fill="#CCCCCC"/>
<path d="M88.1063 96.8067C88.0253 96.8067 87.9476 96.7745 87.8903 96.7173C87.833 96.66 87.8009 96.5823 87.8009 96.5013V74.8141C87.8009 74.7331 87.833 74.6554 87.8903 74.5981C87.9476 74.5408 88.0253 74.5087 88.1063 74.5087C88.1873 74.5087 88.265 74.5408 88.3223 74.5981C88.3796 74.6554 88.4118 74.7331 88.4118 74.8141V96.5013C88.4118 96.5823 88.3796 96.66 88.3223 96.7173C88.265 96.7745 88.1873 96.8067 88.1063 96.8067Z" fill="#CCCCCC"/>
<path d="M90.2444 98.7922C90.1634 98.7922 90.0857 98.76 90.0285 98.7028C89.9712 98.6455 89.939 98.5678 89.939 98.4868V72.8287C89.939 72.7477 89.9712 72.67 90.0285 72.6127C90.0857 72.5554 90.1634 72.5233 90.2444 72.5233C90.3255 72.5233 90.4031 72.5554 90.4604 72.6127C90.5177 72.67 90.5499 72.7477 90.5499 72.8287V98.4868C90.5499 98.5678 90.5177 98.6455 90.4604 98.7028C90.4031 98.76 90.3255 98.7922 90.2444 98.7922Z" fill="#CCCCCC"/>
<path d="M92.3826 93.5995C92.3016 93.5995 92.2239 93.5673 92.1666 93.51C92.1094 93.4528 92.0772 93.3751 92.0772 93.2941V78.0214C92.0772 77.9404 92.1094 77.8627 92.1666 77.8054C92.2239 77.7481 92.3016 77.7159 92.3826 77.7159C92.4636 77.7159 92.5413 77.7481 92.5986 77.8054C92.6559 77.8627 92.6881 77.9404 92.6881 78.0214V93.2941C92.6881 93.3751 92.6559 93.4528 92.5986 93.51C92.5413 93.5673 92.4636 93.5995 92.3826 93.5995Z" fill="#CCCCCC"/>
<path d="M94.5208 94.8213C94.4398 94.8213 94.3621 94.7891 94.3048 94.7319C94.2475 94.6746 94.2154 94.5969 94.2154 94.5159V76.7996C94.2154 76.7186 94.2475 76.6409 94.3048 76.5836C94.3621 76.5263 94.4398 76.4941 94.5208 76.4941C94.6018 76.4941 94.6795 76.5263 94.7368 76.5836C94.7941 76.6409 94.8263 76.7186 94.8263 76.7996V94.5159C94.8263 94.5969 94.7941 94.6746 94.7368 94.7319C94.6795 94.7891 94.6018 94.8213 94.5208 94.8213Z" fill="#CCCCCC"/>
<path d="M96.659 91.3086C96.578 91.3086 96.5003 91.2765 96.443 91.2192C96.3857 91.1619 96.3535 91.0842 96.3535 91.0032V80.3123C96.3535 80.2313 96.3857 80.1536 96.443 80.0963C96.5003 80.039 96.578 80.0069 96.659 80.0069C96.74 80.0069 96.8177 80.039 96.875 80.0963C96.9323 80.1536 96.9645 80.2313 96.9645 80.3123V91.0032C96.9645 91.0842 96.9323 91.1619 96.875 91.2192C96.8177 91.2765 96.74 91.3086 96.659 91.3086Z" fill="#CCCCCC"/>
<path d="M22.7393 165.082V175.987L31.292 170.535L22.7393 165.082Z" fill="#3F3D56"/>
<path d="M59.1365 174.86C61.5186 172.48 61.5135 168.613 59.1252 166.222C56.7368 163.832 52.8695 163.823 50.4874 166.203C48.1053 168.583 48.1104 172.45 50.4988 174.841C52.8872 177.231 56.7544 177.24 59.1365 174.86Z" fill="#6C63FF"/>
<path d="M81.4749 175.419H79.3826C79.1052 175.419 78.8392 175.309 78.6428 175.113C78.4464 174.917 78.3357 174.652 78.3349 174.374V166.695C78.3357 166.418 78.4463 166.152 78.6426 165.955C78.8389 165.759 79.105 165.648 79.3826 165.647H81.4749C81.7528 165.647 82.0193 165.758 82.2158 165.954C82.4123 166.151 82.5226 166.417 82.5226 166.695V174.377C82.5222 174.515 82.4948 174.65 82.4419 174.777C82.3891 174.903 82.3118 175.018 82.2145 175.115C82.1172 175.212 82.0018 175.288 81.8749 175.341C81.748 175.393 81.6121 175.419 81.4749 175.419ZM88.1063 174.377V166.695C88.1063 166.418 87.9964 166.152 87.8005 165.955C87.6047 165.759 87.339 165.648 87.0617 165.647H84.9663C84.6886 165.648 84.4226 165.759 84.2263 165.955C84.03 166.152 83.9194 166.418 83.9186 166.695V174.377C83.9194 174.655 84.0301 174.92 84.2265 175.116C84.4229 175.312 84.6889 175.422 84.9663 175.422H87.0617C87.1989 175.422 87.3347 175.395 87.4614 175.342C87.5882 175.29 87.7033 175.213 87.8003 175.116C87.8974 175.019 87.9743 174.904 88.0268 174.777C88.0793 174.65 88.1063 174.515 88.1063 174.377Z" fill="#3F3D56"/>
<path d="M82.1949 122.622H28.6508C28.5545 122.621 28.4622 122.583 28.3943 122.515C28.3263 122.447 28.2881 122.354 28.2881 122.258C28.2881 122.162 28.3263 122.069 28.3943 122.001C28.4622 121.933 28.5545 121.895 28.6508 121.894H82.1949C82.2913 121.894 82.3838 121.933 82.452 122.001C82.5202 122.069 82.5585 122.162 82.5585 122.258C82.5585 122.355 82.5202 122.447 82.452 122.515C82.3838 122.583 82.2913 122.622 82.1949 122.622Z" fill="#CCCCCC"/>
<path d="M82.1949 49.3129H28.6508C28.5545 49.3127 28.4622 49.2742 28.3943 49.206C28.3263 49.1379 28.2881 49.0455 28.2881 48.9492C28.2881 48.853 28.3263 48.7606 28.3943 48.6924C28.4622 48.6243 28.5545 48.5858 28.6508 48.5855H82.1949C82.2911 48.5858 82.3834 48.6243 82.4514 48.6924C82.5193 48.7606 82.5575 48.853 82.5575 48.9492C82.5575 49.0455 82.5193 49.1379 82.4514 49.206C82.3834 49.2742 82.2911 49.3127 82.1949 49.3129Z" fill="#CCCCCC"/>
<path d="M168.803 96.9728C168.765 96.9728 168.728 96.9703 168.691 96.9655L158.246 95.5942C158.093 95.5739 157.948 95.5128 157.827 95.4173C157.705 95.3219 157.612 95.1956 157.556 95.0516C157.5 94.9076 157.483 94.7512 157.508 94.5988C157.533 94.4463 157.599 94.3033 157.698 94.1848L164.978 85.5089C165.077 85.3893 165.206 85.2987 165.352 85.2465C165.499 85.1944 165.656 85.1826 165.808 85.2126C165.961 85.2425 166.102 85.313 166.217 85.4166C166.333 85.5202 166.418 85.6531 166.465 85.8012L169.625 95.849C169.666 95.9783 169.676 96.1154 169.654 96.2493C169.632 96.3831 169.579 96.5099 169.499 96.6193C169.419 96.7288 169.314 96.8178 169.193 96.8792C169.072 96.9406 168.938 96.9727 168.803 96.9728Z" fill="#F2F2F2"/>
<path d="M149.241 143.996C149.014 143.996 148.797 143.906 148.635 143.747C148.474 143.588 148.381 143.371 148.378 143.145L148.243 131.82C148.24 131.665 148.279 131.512 148.356 131.377C148.433 131.242 148.545 131.13 148.68 131.054C148.815 130.977 148.968 130.939 149.123 130.942C149.278 130.945 149.43 130.99 149.561 131.072L158.508 136.631C158.632 136.708 158.734 136.814 158.805 136.94C158.877 137.067 158.915 137.209 158.917 137.354C158.919 137.499 158.884 137.642 158.816 137.771C158.748 137.899 158.649 138.008 158.527 138.087L149.713 143.856C149.576 143.945 149.417 143.994 149.254 143.996H149.241Z" fill="#F2F2F2"/>
<path d="M232.324 161.407C232.098 161.407 231.88 161.317 231.718 161.158C231.557 160.999 231.465 160.782 231.461 160.555L231.327 149.231C231.324 149.076 231.363 148.922 231.44 148.788C231.516 148.653 231.628 148.541 231.763 148.465C231.898 148.388 232.051 148.349 232.206 148.353C232.362 148.356 232.513 148.401 232.645 148.483L241.591 154.042C241.715 154.119 241.817 154.225 241.888 154.351C241.96 154.477 241.998 154.62 242 154.765C242.002 154.91 241.967 155.053 241.899 155.181C241.831 155.31 241.732 155.418 241.611 155.498L232.796 161.267C232.66 161.356 232.5 161.405 232.337 161.407H232.324Z" fill="#F2F2F2"/>
<path d="M188.828 123.296C186.351 122.158 184.722 118.904 184.815 115.696C184.908 112.487 186.596 109.486 188.925 107.956C190.061 107.229 191.359 106.795 192.704 106.693C194.048 106.592 195.397 106.826 196.629 107.374C199.128 108.438 202.484 108.728 203.986 111.372C205.141 113.404 204.725 117.938 203.907 120.197C203.201 122.151 201.473 123.251 199.789 123.867C197.924 124.542 195.936 124.809 193.96 124.65C191.983 124.491 190.063 123.909 188.331 122.944" fill="#2F2E41"/>
<path d="M216.229 213.024L212.719 214.33L206.011 201.415L211.19 199.487L216.229 213.024Z" fill="#FFB8B8"/>
<path d="M209.839 214.261L216.607 211.741L218.193 216.003L207.163 220.108C206.955 219.549 206.859 218.954 206.881 218.357C206.902 217.76 207.041 217.173 207.29 216.63C207.538 216.087 207.891 215.599 208.329 215.192C208.766 214.785 209.279 214.469 209.839 214.261Z" fill="#2F2E41"/>
<path d="M182.562 216.631H178.817L177.036 202.187H182.563L182.562 216.631Z" fill="#FFB8B8"/>
<path d="M176.142 215.561H183.365V220.108H171.595C171.595 219.511 171.713 218.92 171.941 218.368C172.17 217.816 172.505 217.315 172.927 216.893C173.349 216.471 173.851 216.136 174.402 215.907C174.954 215.679 175.545 215.561 176.142 215.561Z" fill="#2F2E41"/>
<path d="M171.176 164.565C171.653 164.514 172.113 164.359 172.523 164.111C172.934 163.862 173.285 163.527 173.552 163.129C173.819 162.73 173.995 162.278 174.068 161.804C174.141 161.33 174.11 160.845 173.976 160.385L186.294 139.133L181.985 137.41L169.672 158.188C168.913 158.465 168.282 159.01 167.898 159.721C167.515 160.432 167.406 161.259 167.591 162.045C167.776 162.831 168.244 163.522 168.905 163.986C169.565 164.451 170.373 164.657 171.176 164.565Z" fill="#FFB8B8"/>
<path d="M183.527 146.688L176.98 142.62L183.154 131.371C183.425 130.876 183.793 130.44 184.236 130.09C184.679 129.74 185.188 129.482 185.732 129.332C186.276 129.182 186.845 129.142 187.405 129.216C187.965 129.289 188.504 129.475 188.991 129.76C189.478 130.046 189.903 130.426 190.241 130.879C190.578 131.332 190.821 131.847 190.956 132.396C191.091 132.944 191.114 133.514 191.024 134.071C190.935 134.629 190.735 135.163 190.435 135.641L183.527 146.688Z" fill="#2F2E41"/>
<path d="M208.524 206.83C208.27 206.83 208.021 206.759 207.805 206.625C207.589 206.492 207.414 206.301 207.301 206.073L191.014 172.549C190.913 172.351 190.754 172.189 190.558 172.086C190.362 171.983 190.139 171.943 189.92 171.972C189.7 172.001 189.495 172.098 189.332 172.249C189.17 172.399 189.059 172.597 189.013 172.814L183.211 204.766C183.146 205.075 182.977 205.353 182.732 205.553C182.487 205.753 182.181 205.862 181.865 205.863H178.168C177.825 205.865 177.493 205.737 177.24 205.506C176.986 205.275 176.829 204.956 176.799 204.614C174.528 179.694 175.757 161.559 180.452 150.714C180.584 150.413 180.82 150.169 181.117 150.026C181.414 149.883 181.752 149.851 182.07 149.935L200.837 154.977C201.073 155.041 201.288 155.166 201.46 155.341C201.632 155.515 201.754 155.732 201.813 155.969L213.576 203.947C213.661 204.287 213.613 204.646 213.442 204.952C213.271 205.257 212.99 205.486 212.657 205.592L208.942 206.765C208.807 206.808 208.666 206.83 208.524 206.83Z" fill="#2F2E41"/>
<path d="M193.947 126.338C198.09 126.338 201.449 122.979 201.449 118.836C201.449 114.692 198.09 111.333 193.947 111.333C189.803 111.333 186.444 114.692 186.444 118.836C186.444 122.979 189.803 126.338 193.947 126.338Z" fill="#FFB8B8"/>
<path d="M201.032 129.806C201.032 129.806 194.312 126.14 189.12 130.111C189.12 130.111 182.552 136.678 184.69 143.093L179.345 158.213C183.575 166.233 195.957 164.934 201.949 158.213L201.49 143.704L201.032 129.806Z" fill="#6C63FF"/>
<path d="M205.286 170.194C204.117 170.226 202.959 169.969 201.913 169.445C200.264 168.559 199.248 166.895 198.896 164.497C198.307 160.492 198.792 154.986 199.306 149.157C199.974 141.576 200.665 133.738 198.815 129.424C198.718 129.197 198.685 128.948 198.718 128.703C198.751 128.459 198.849 128.228 199.003 128.035C199.156 127.841 199.359 127.693 199.59 127.605C199.82 127.517 200.07 127.494 200.313 127.536L205.575 128.443C205.849 128.491 206.102 128.621 206.3 128.815C206.499 129.01 206.635 129.26 206.69 129.532L213.984 166.586C214.044 166.886 214.001 167.197 213.863 167.471C213.726 167.744 213.5 167.963 213.223 168.094C211.635 168.841 208.337 170.194 205.286 170.194Z" fill="#2F2E41"/>
<path d="M177.735 169.702C177.546 169.702 177.359 169.663 177.186 169.588C176.321 169.214 175.124 168.67 173.63 167.973C169.502 166.047 180.388 139.435 182.612 134.12C182.689 133.935 182.806 133.769 182.955 133.635L188.914 128.211C189.143 128.032 189.424 127.931 189.715 127.922C190.006 127.913 190.293 127.996 190.533 128.16C190.774 128.325 190.956 128.561 191.053 128.836C191.15 129.11 191.158 129.408 191.075 129.687C190.029 133.192 188.177 139.067 186.216 145.287C183.121 155.102 179.921 165.252 179.066 168.664C178.991 168.96 178.82 169.224 178.579 169.412C178.338 169.6 178.041 169.702 177.735 169.702Z" fill="#2F2E41"/>
<path d="M219.618 163.265C219.865 162.854 220.018 162.393 220.067 161.916C220.117 161.439 220.061 160.956 219.903 160.503C219.746 160.05 219.491 159.637 219.157 159.293C218.823 158.949 218.417 158.682 217.969 158.512L208.429 135.877L204.458 138.277L213.622 160.623C213.386 161.396 213.441 162.228 213.778 162.962C214.114 163.697 214.708 164.282 215.447 164.608C216.186 164.933 217.019 164.976 217.788 164.729C218.557 164.482 219.208 163.961 219.618 163.265Z" fill="#FFB8B8"/>
<path d="M205.601 145.411L200.342 133.706C200.11 133.191 199.985 132.635 199.972 132.07C199.959 131.506 200.06 130.945 200.268 130.42C200.476 129.895 200.787 129.417 201.183 129.014C201.579 128.612 202.052 128.293 202.573 128.076C203.095 127.86 203.654 127.75 204.219 127.753C204.784 127.756 205.342 127.873 205.861 128.096C206.379 128.319 206.848 128.644 207.239 129.051C207.63 129.458 207.936 129.94 208.137 130.467L212.792 142.637L205.601 145.411Z" fill="#2F2E41"/>
<path d="M199.281 109.498C199.551 109.537 199.826 109.487 200.065 109.353C200.303 109.22 200.491 109.012 200.599 108.762C200.699 108.508 200.74 108.234 200.718 107.962C200.696 107.69 200.612 107.427 200.472 107.193C200.188 106.725 199.792 106.336 199.319 106.061C198.774 105.697 198.145 105.481 197.492 105.433C197.166 105.411 196.839 105.46 196.534 105.576C196.229 105.692 195.952 105.872 195.722 106.105C195.498 106.343 195.35 106.642 195.297 106.964C195.244 107.287 195.289 107.618 195.425 107.915C195.7 108.444 196.275 108.741 196.836 108.942C197.949 109.341 199.134 109.496 200.311 109.399" fill="#2F2E41"/>
<path d="M201.949 117.587C200.78 117.928 200.843 117.298 200.202 116.263C199.561 115.228 198.728 114.009 197.512 114.074C196.516 114.127 195.822 115.032 195.112 115.733C193.846 116.982 192.008 117.773 190.271 117.392C188.534 117.011 187.102 115.219 187.484 113.482C187.611 112.999 187.836 112.547 188.145 112.155C188.454 111.763 188.84 111.438 189.28 111.201C190.163 110.732 191.132 110.449 192.128 110.368C194.333 110.115 196.566 110.349 198.671 111.053C200.124 111.54 201.584 112.329 202.307 113.68C203.03 115.031 203.663 116.985 202.254 117.588L201.949 117.587Z" fill="#2F2E41"/>
<path d="M198.249 105.628C197.258 104.372 197.631 102.394 198.786 101.287C199.94 100.18 201.657 99.8354 203.25 99.9761C204.829 100.135 206.337 100.706 207.625 101.632C208.913 102.559 209.935 103.807 210.588 105.253C211.595 107.556 211.587 110.19 212.497 112.532C212.983 113.781 213.719 114.917 214.66 115.871C215.601 116.825 216.727 117.576 217.969 118.078C219.211 118.58 220.543 118.822 221.882 118.79C223.222 118.758 224.54 118.452 225.757 117.891C227.342 117.16 228.851 115.729 228.76 113.987C229.762 117.85 227.958 122.268 224.538 124.325C222.535 125.53 220.163 125.939 217.843 126.221C216.33 126.404 214.776 126.541 213.301 126.163C211.236 125.634 209.507 124.11 208.461 122.254C207.414 120.397 207.002 118.234 206.986 116.103C206.974 114.442 207.191 112.781 207.076 111.125C206.961 109.469 206.464 107.756 205.263 106.609C204.062 105.462 202.036 105.085 200.719 106.095C200.189 106.501 199.801 107.093 199.205 107.393C198.608 107.692 197.666 107.46 197.626 106.793L198.249 105.628Z" fill="#2F2E41"/>
<path d="M238.344 220.547H144.48C144.384 220.547 144.292 220.508 144.224 220.44C144.156 220.372 144.118 220.28 144.118 220.183C144.118 220.087 144.156 219.995 144.224 219.927C144.292 219.858 144.384 219.82 144.48 219.82H238.344C238.44 219.82 238.533 219.858 238.601 219.927C238.669 219.995 238.707 220.087 238.707 220.183C238.707 220.28 238.669 220.372 238.601 220.44C238.533 220.508 238.44 220.547 238.344 220.547Z" fill="#3F3D56"/>
</g>
<defs>
<clipPath id="clip0_368_872">
<rect width="242" height="222.302" fill="white"/>
</clipPath>
</defs>
</svg>
