<svg width="294" height="208" viewBox="0 0 294 208" fill="none" xmlns="http://www.w3.org/2000/svg">
<g clip-path="url(#clip0_368_1021)">
<path d="M124.899 88.6201C124.437 88.2805 123.996 87.9134 123.579 87.5208L124.15 86.9137C124.543 87.2833 124.958 87.6289 125.393 87.9487L124.899 88.6201Z" fill="#E4E4E4"/>
<path d="M121.286 84.7204C120.646 83.6919 120.143 82.585 119.787 81.4273L120.584 81.1826C120.918 82.2715 121.392 83.3127 121.994 84.2802L121.286 84.7204ZM119.175 77.8625C119.167 77.6655 119.163 77.4682 119.163 77.2708C119.163 76.2579 119.272 75.248 119.489 74.2585L120.303 74.4371C120.099 75.3679 119.996 76.3179 119.996 77.2708C119.996 77.4565 120 77.6421 120.008 77.8275L119.175 77.8625ZM121.456 71.2362L120.714 70.8546C121.059 70.1865 121.455 69.5467 121.901 68.9413C122.174 68.57 122.469 68.2154 122.785 67.8795L123.392 68.4504C123.1 68.7621 122.826 69.091 122.572 69.4354C122.153 70.0052 121.78 70.6073 121.456 71.2362ZM126.067 66.4002L125.674 65.6653C126.75 65.0889 127.912 64.6899 129.115 64.4837L129.256 65.3054C128.141 65.4963 127.064 65.8661 126.067 66.4002ZM135.834 66.3092C134.829 65.7916 133.746 65.4412 132.628 65.2717L132.753 64.4476C133.96 64.6306 135.13 65.009 136.215 65.5678L135.834 66.3092Z" fill="#E4E4E4"/>
<path d="M139.468 69.6082C139.195 69.1545 138.879 68.728 138.524 68.3346L139.144 67.7764C139.534 68.2096 139.882 68.6791 140.182 69.1786L139.468 69.6082Z" fill="#E4E4E4"/>
<path d="M107.509 60.7394L106.838 60.2455C107.171 59.7921 107.523 59.3436 107.882 58.9127L108.522 59.447C108.173 59.8649 107.833 60.2998 107.509 60.7394Z" fill="#E4E4E4"/>
<path d="M148.813 59.7755C148.172 58.8865 147.462 58.0494 146.69 57.2719L147.282 56.6843C148.085 57.493 148.823 58.3637 149.489 59.2884L148.813 59.7755ZM110.791 57.0527L110.223 56.4424C111.054 55.6692 111.933 54.9492 112.855 54.2865L113.341 54.9636C112.448 55.6057 111.596 56.3034 110.791 57.0527ZM144.202 55.1305C143.315 54.4796 142.389 53.8842 141.428 53.3479L141.834 52.6198C142.825 53.173 143.78 53.7871 144.695 54.4586L144.202 55.1305ZM116.135 53.2134L115.738 52.4804C116.736 51.9401 117.767 51.4629 118.825 51.0516L119.127 51.8286C118.101 52.2272 117.102 52.6897 116.135 53.2134ZM138.454 51.9266C137.434 51.5162 136.389 51.1705 135.325 50.8917L135.537 50.0852C136.634 50.373 137.713 50.7297 138.766 51.1531L138.454 51.9266ZM122.268 50.8293L122.066 50.0206C123.167 49.7453 124.284 49.5386 125.41 49.4019L125.51 50.2295C124.418 50.3621 123.336 50.5624 122.268 50.8293ZM132.091 50.2594C131 50.1171 129.901 50.0432 128.802 50.0381L128.805 49.2044C129.94 49.2098 131.073 49.2861 132.199 49.4328L132.091 50.2594Z" fill="#E4E4E4"/>
<path d="M151.193 64.0747C150.987 63.5718 150.76 63.0714 150.517 62.5874L151.261 62.213C151.514 62.7165 151.751 63.2368 151.964 63.7596L151.193 64.0747Z" fill="#E4E4E4"/>
<path d="M153.477 113.064L153.191 112.281C153.704 112.093 154.222 111.892 154.729 111.683L155.047 112.454C154.529 112.667 154.001 112.872 153.477 113.064Z" fill="#E4E4E4"/>
<path d="M140.48 115.611L140.449 114.778C141.531 114.738 142.624 114.655 143.699 114.531L143.794 115.36C142.698 115.486 141.583 115.571 140.48 115.611ZM137.155 115.601C136.051 115.554 134.936 115.463 133.842 115.329L133.943 114.502C135.016 114.633 136.108 114.722 137.191 114.768L137.155 115.601ZM147.079 114.849L146.919 114.031C147.98 113.823 149.047 113.57 150.09 113.279L150.314 114.082C149.25 114.379 148.162 114.637 147.079 114.849ZM130.561 114.797C129.479 114.577 128.393 114.311 127.332 114.006L127.563 113.205C128.602 113.504 129.667 113.764 130.727 113.98L130.561 114.797ZM124.176 112.961C123.143 112.572 122.113 112.137 121.114 111.668L121.468 110.914C122.447 111.374 123.457 111.8 124.47 112.181L124.176 112.961ZM118.163 110.137C117.207 109.592 116.259 109 115.343 108.378L115.812 107.689C116.709 108.298 117.639 108.878 118.576 109.413L118.163 110.137Z" fill="#E4E4E4"/>
<path d="M112.661 106.389C112.227 106.034 111.796 105.664 111.381 105.29L111.939 104.671C112.344 105.036 112.764 105.397 113.189 105.744L112.661 106.389Z" fill="#E4E4E4"/>
<path d="M89.584 22.3341L89.1558 21.6187C89.6345 21.3322 90.1225 21.0484 90.6062 20.7755L91.016 21.5014C90.5384 21.771 90.0566 22.051 89.584 22.3341Z" fill="#E4E4E4"/>
<path d="M169.835 33.7192C169.121 32.8872 168.369 32.0664 167.601 31.2802L168.197 30.6975C168.978 31.4967 169.742 32.3306 170.468 33.1762L169.835 33.7192ZM165.214 28.9892C164.4 28.2559 163.549 27.5377 162.687 26.8549L163.204 26.2012C164.081 26.8949 164.945 27.6245 165.772 28.3697L165.214 28.9892ZM160.03 24.8794C159.128 24.2463 158.2 23.629 157.272 23.045L157.716 22.3395C158.656 22.9309 159.596 23.5559 160.509 24.1971L160.03 24.8794ZM154.426 21.3535C153.467 20.8164 152.482 20.2969 151.497 19.8092L151.866 19.0621C152.864 19.5559 153.863 20.0822 154.833 20.6262L154.426 21.3535ZM93.9428 19.9475L93.5709 19.2015C94.5679 18.7045 95.5913 18.2269 96.6123 17.7818L96.9454 18.546C95.9374 18.9853 94.9271 19.4568 93.9428 19.9475ZM148.492 18.4176C147.483 17.9813 146.449 17.5657 145.419 17.1824L145.71 16.4011C146.753 16.7894 147.8 17.2105 148.823 17.6524L148.492 18.4176ZM100.016 17.3003L99.7223 16.5201C100.764 16.1284 101.83 15.7578 102.893 15.4189L103.146 16.2132C102.097 16.5478 101.044 16.9136 100.016 17.3003ZM142.287 16.1069C141.239 15.7772 140.168 15.4703 139.103 15.1947L139.312 14.3877C140.39 14.6668 141.476 14.9778 142.537 15.3118L142.287 16.1069ZM106.328 15.2873L106.115 14.481C107.191 14.1976 108.29 13.9376 109.381 13.7086L109.552 14.5243C108.475 14.7506 107.39 15.0073 106.328 15.2873ZM135.876 14.4475C134.8 14.2273 133.703 14.032 132.615 13.8672L132.74 13.043C133.842 13.2099 134.953 13.4077 136.043 13.6307L135.876 14.4475ZM112.811 13.9269L112.682 13.1033C113.781 12.9305 114.901 12.7836 116.009 12.6666L116.097 13.4957C115.002 13.6113 113.897 13.7563 112.811 13.9269ZM129.328 13.4551C128.235 13.3463 127.123 13.2645 126.024 13.2117L126.064 12.3791C127.177 12.4324 128.303 12.5153 129.41 12.6255L129.328 13.4551ZM119.4 13.2323L119.355 12.4C120.468 12.3396 121.596 12.3073 122.709 12.3039L122.712 13.1376C121.613 13.141 120.499 13.1729 119.4 13.2323Z" fill="#E4E4E4"/>
<path d="M172.893 37.6515C172.577 37.2017 172.25 36.7518 171.921 36.3144L172.587 35.8134C172.922 36.2581 173.254 36.7153 173.575 37.1726L172.893 37.6515Z" fill="#E4E4E4"/>
<path d="M134.931 172.464C134.378 172.393 133.825 172.317 133.273 172.237L133.393 171.412C133.94 171.492 134.489 171.567 135.037 171.637L134.931 172.464Z" fill="#E4E4E4"/>
<path d="M129.899 171.69C128.784 171.489 127.656 171.267 126.546 171.029L126.721 170.214C127.821 170.45 128.94 170.67 130.047 170.869L129.899 171.69ZM123.218 170.257C122.115 169.981 121.005 169.684 119.917 169.372L120.146 168.571C121.225 168.88 122.327 169.175 123.42 169.448L123.218 170.257ZM116.648 168.377C115.567 168.028 114.479 167.657 113.414 167.273L113.697 166.488C114.753 166.869 115.832 167.238 116.904 167.584L116.648 168.377ZM110.22 166.06C109.168 165.64 108.107 165.196 107.068 164.74L107.403 163.977C108.434 164.429 109.485 164.869 110.529 165.286L110.22 166.06ZM103.963 163.315C102.94 162.825 101.912 162.311 100.907 161.787L101.292 161.048C102.289 161.567 103.308 162.077 104.323 162.564L103.963 163.315ZM97.904 160.157C96.9202 159.601 95.9288 159.02 94.9574 158.428L95.3912 157.716C96.3547 158.303 97.338 158.88 98.3139 159.431L97.904 160.157ZM92.07 156.602C91.1226 155.98 90.1719 155.334 89.2445 154.681L89.7244 153.999C90.6444 154.647 91.5874 155.288 92.5273 155.905L92.07 156.602ZM86.4824 152.665C85.5759 151.977 84.6737 151.262 83.8008 150.541L84.3318 149.898C85.196 150.612 86.0891 151.32 86.9865 152.001L86.4824 152.665ZM81.2092 148.308C80.3644 147.549 79.5244 146.762 78.7127 145.969L79.2953 145.373C80.0987 146.157 80.9301 146.936 81.7664 147.688L81.2092 148.308ZM76.3162 143.527C75.5378 142.7 74.7666 141.846 74.0242 140.987L74.6547 140.442C75.3896 141.291 76.1528 142.137 76.9232 142.956L76.3162 143.527ZM71.8411 138.353C71.1348 137.463 70.4382 136.546 69.7708 135.629L70.445 135.138C71.1056 136.047 71.795 136.954 72.494 137.834L71.8411 138.353Z" fill="#E4E4E4"/>
<path d="M67.8072 132.805C67.4978 132.339 67.1937 131.871 66.8947 131.4L67.5983 130.953C67.8944 131.419 68.1954 131.883 68.5015 132.344L67.8072 132.805Z" fill="#E4E4E4"/>
<path d="M246.133 36.0674L235.743 45.6332L244 31.7775C237.494 19.9797 226.854 9.78352 226.854 9.78352C226.854 9.78352 204.78 30.9328 204.78 47.5576C204.78 64.1823 214.663 69.987 226.854 69.987C239.046 69.987 248.929 64.1823 248.929 47.5576C248.929 43.8572 247.834 39.9329 246.133 36.0674Z" fill="#F2F2F2"/>
<path d="M233.07 46.1511V46.9705C233.022 56.4957 231.415 63.9276 228.263 69.1608C228.219 69.2379 228.17 69.3109 228.125 69.388L227.772 69.173L227.436 68.962C230.933 63.311 232.17 55.3233 232.215 47.0151C232.219 46.7474 232.223 46.4756 232.219 46.2038C232.206 42.6866 231.991 39.1289 231.647 35.6725C231.622 35.4048 231.594 35.133 231.565 34.8612C231.087 30.3014 230.397 25.9445 229.691 22.1596C229.643 21.8918 229.59 21.6241 229.537 21.3604C228.316 14.9589 227.071 10.322 226.787 9.29568C226.754 9.16992 226.734 9.10096 226.73 9.08474L227.115 8.97521L227.119 8.97114L227.509 8.8616C227.513 8.87785 227.582 9.10908 227.695 9.53909C228.129 11.1455 229.257 15.5065 230.365 21.259C230.413 21.5186 230.466 21.7864 230.515 22.0541C231.091 25.125 231.655 28.557 232.101 32.1594C232.215 33.0641 232.316 33.9565 232.405 34.8368C232.438 35.1086 232.466 35.3804 232.49 35.6482C232.864 39.3844 233.057 42.8854 233.07 46.1511Z" fill="white"/>
<path d="M230.365 21.259C230.093 21.2955 229.817 21.332 229.537 21.3604C228.777 21.4387 228.013 21.4779 227.249 21.4781C223.992 21.4824 220.776 20.756 217.837 19.3524C217.667 19.5674 217.497 19.7824 217.322 20.0014C220.414 21.5104 223.809 22.293 227.249 22.2894C228.065 22.2892 228.88 22.2459 229.691 22.1596C229.967 22.1312 230.243 22.0947 230.515 22.0541C232.758 21.7323 234.94 21.0716 236.985 20.0947C236.811 19.8716 236.64 19.6525 236.474 19.4375C234.538 20.3422 232.48 20.956 230.365 21.259Z" fill="white"/>
<path d="M232.405 34.8369C232.125 34.8531 231.845 34.8612 231.565 34.8612C231.48 34.8653 231.391 34.8653 231.306 34.8653C227.777 34.8653 224.3 34.012 221.173 32.3782C218.045 30.7444 215.358 28.3784 213.342 25.4821C213.18 25.7214 213.018 25.9607 212.86 26.2041C214.961 29.1348 217.73 31.5226 220.938 33.1699C224.146 34.8172 227.7 35.6765 231.306 35.6766C231.419 35.6766 231.533 35.6766 231.646 35.6725C231.93 35.6685 232.21 35.6604 232.49 35.6482C236.822 35.4263 240.997 33.9616 244.518 31.4292C244.389 31.1899 244.259 30.9505 244.125 30.7112C240.703 33.1975 236.63 34.6313 232.405 34.8369Z" fill="white"/>
<path d="M233.07 46.1511C232.786 46.1754 232.503 46.1916 232.219 46.2038C231.914 46.216 231.61 46.2241 231.306 46.2241C226.564 46.2186 221.951 44.6774 218.159 41.8311C214.366 38.9849 211.598 34.9867 210.268 30.4353C210.085 30.7639 209.902 31.0885 209.728 31.417C211.227 35.9579 214.118 39.911 217.992 42.7148C221.865 45.5185 226.524 47.0303 231.306 47.0354C231.61 47.0354 231.914 47.0314 232.214 47.0152C232.503 47.007 232.786 46.9908 233.07 46.9705C238.806 46.5218 244.157 43.9101 248.04 39.6643C247.955 39.3642 247.857 39.068 247.76 38.7678C244.01 43.0454 238.741 45.6937 233.07 46.1511Z" fill="white"/>
<path d="M33.4507 42.6912L40.2278 55.0823L28.773 43.7264C15.7543 47.1944 3.29266 55.0611 3.29266 55.0611C3.29266 55.0611 18.4929 81.5853 34.6268 85.5953C50.7607 89.6053 58.7779 81.4141 61.7186 69.5825C64.6592 57.7511 61.4098 46.7597 45.2759 42.7497C41.6848 41.8571 37.6122 41.9734 33.4507 42.6912Z" fill="#F2F2F2"/>
<path d="M40.0858 57.8005L40.8811 57.9982C50.1133 60.343 56.9383 63.6946 61.2566 68.0159C61.3207 68.0778 61.3798 68.1426 61.4438 68.2046L61.15 68.4952L60.8641 68.7711C56.2234 64.0144 48.77 60.8869 40.7179 58.8396C40.459 58.7711 40.1963 58.7016 39.9315 58.64C36.5152 57.8035 33.0107 57.154 29.5732 56.6549C29.3075 56.6139 29.0369 56.5759 28.7663 56.5379C24.2257 55.9027 19.831 55.521 15.9876 55.2931C15.716 55.2758 15.4435 55.2624 15.1748 55.2499C8.66781 54.8909 3.86748 54.9811 2.80293 55.0091C2.67306 55.0103 2.60124 55.0133 2.58451 55.0134L2.57118 54.6129L2.56821 54.608L2.55585 54.2036C2.57259 54.2036 2.81363 54.1925 3.25833 54.186C4.92205 54.1522 9.4263 54.1096 15.276 54.4223C15.5397 54.4377 15.8123 54.4511 16.0839 54.4685C19.2031 54.6502 22.6698 54.9308 26.2734 55.3666C27.1787 55.4746 28.0693 55.5914 28.9452 55.7171C29.2168 55.7512 29.4874 55.7892 29.7531 55.8302C33.4691 56.3692 36.9133 57.0259 40.0858 57.8005Z" fill="white"/>
<path d="M15.276 54.4223C15.2459 54.6949 15.2148 54.9714 15.1748 55.2499C15.0674 56.0065 14.9213 56.7571 14.7372 57.4987C13.9558 60.6603 12.4751 63.6063 10.4041 66.1197C10.5716 66.3369 10.7392 66.5541 10.9097 66.7762C13.1198 64.1401 14.6983 61.0338 15.5245 57.6944C15.7211 56.9027 15.8757 56.1011 15.9876 55.2931C16.0266 55.0185 16.0577 54.742 16.0839 54.4684C16.3128 52.2135 16.1978 49.9368 15.7431 47.7164C15.4845 47.8318 15.2308 47.9444 14.982 48.0539C15.3931 50.1506 15.4921 52.2966 15.276 54.4223Z" fill="white"/>
<path d="M28.9452 55.7171C28.8934 55.9926 28.8338 56.2662 28.7662 56.5379C28.7496 56.6216 28.7281 56.7082 28.7076 56.7908C27.8564 60.2155 26.1898 63.3836 23.8498 66.0249C21.5097 68.6663 18.5656 70.7026 15.2686 71.9604C15.4617 72.1756 15.6548 72.3908 15.8529 72.603C19.2038 71.2708 22.1891 69.1594 24.5614 66.4437C26.9338 63.7279 28.625 60.4861 29.4949 56.9866C29.5223 56.8763 29.5497 56.7661 29.5732 56.6549C29.6378 56.3783 29.6974 56.1047 29.7531 55.8301C30.5825 51.5731 30.1683 47.1673 28.56 43.1394C28.2964 43.2077 28.0328 43.2759 27.7682 43.3481C29.3557 47.2687 29.7648 51.5674 28.9452 55.7171Z" fill="white"/>
<path d="M40.0858 57.8005C40.0409 58.0819 39.9882 58.3614 39.9315 58.64C39.8699 58.9382 39.8044 59.2354 39.731 59.5307C38.582 64.1312 35.9737 68.2357 32.2967 71.2297C28.6196 74.2238 24.0717 75.9463 19.3339 76.1393C19.6087 76.3958 19.8797 76.6512 20.1565 76.8997C24.9248 76.5406 29.4586 74.6879 33.1139 71.605C36.7692 68.5221 39.3601 64.3657 40.5184 59.7264C40.5918 59.4311 40.6612 59.1349 40.7179 58.8396C40.7795 58.5581 40.8323 58.2786 40.8811 57.9982C41.8291 52.3235 40.5852 46.5006 37.4013 41.7085C37.0894 41.7188 36.7786 41.7419 36.4637 41.7639C39.7105 46.4351 41.0097 52.1874 40.0858 57.8005Z" fill="white"/>
<path d="M52.4306 121.42L49.8914 118.834L53.0048 114.074L58.3336 105.204C58.1594 104.822 58.1054 104.396 58.1787 103.982C58.252 103.569 58.449 103.187 58.7438 102.888C59.0386 102.589 59.4172 102.386 59.8296 102.307C60.242 102.228 60.6687 102.276 61.0533 102.445C61.4379 102.613 61.7623 102.895 61.9834 103.252C62.2046 103.608 62.3122 104.024 62.292 104.444C62.2718 104.863 62.1247 105.266 61.8703 105.6C61.6158 105.935 61.2659 106.183 60.8669 106.314L56.4684 115.784L52.4306 121.42Z" fill="#A0616A"/>
<path d="M49.6177 127.322C49.3196 127.784 48.8948 128.15 48.3941 128.377C47.8935 128.603 47.3381 128.681 46.7944 128.601C46.277 128.54 45.7886 128.329 45.3892 127.994C44.9899 127.659 44.697 127.215 44.5466 126.716C44.4357 126.362 44.4034 125.988 44.452 125.62C44.5005 125.253 44.6287 124.9 44.8276 124.587C46.5263 121.723 49.6592 117.941 49.6906 117.904L49.7404 117.843L55.0245 118.988L49.6177 127.322Z" fill="#6C63FF"/>
<path d="M94.8226 24.1112L94.2012 24.3026L88.9599 7.27861C88.1554 4.66544 86.3457 2.47889 83.929 1.19999C81.5123 -0.0789071 78.6866 -0.345403 76.0734 0.459135L40.0059 11.5635C38.712 11.9619 37.5092 12.6112 36.4663 13.4744C35.4233 14.3376 34.5606 15.3978 33.9273 16.5944C33.2941 17.7911 32.9027 19.1007 32.7756 20.4486C32.6485 21.7964 32.7881 23.1561 33.1864 24.4501L61.9406 117.845C62.7451 120.458 64.5548 122.644 66.9715 123.923C69.3882 125.202 72.2139 125.469 74.8271 124.664L110.895 113.56C113.508 112.755 115.694 110.946 116.973 108.529C118.252 106.112 118.519 103.286 117.714 100.673L97.932 36.4205L98.5535 36.2292L94.8226 24.1112Z" fill="#3F3D56"/>
<path d="M77.2602 2.90016L72.5522 4.34965C72.9321 4.81381 73.1921 5.36427 73.3092 5.95255C73.4262 6.54084 73.3968 7.14888 73.2236 7.72313C73.0503 8.29738 72.7385 8.82021 72.3155 9.24555C71.8926 9.67089 71.3716 9.9857 70.7983 10.1622L50.1357 16.5238C49.5624 16.7003 48.9546 16.733 48.3656 16.6192C47.7767 16.5054 47.2248 16.2485 46.7586 15.8711C46.2923 15.4938 45.926 15.0076 45.6919 14.4553C45.4579 13.903 45.3632 13.3017 45.4163 12.7042L41.019 14.058C39.0675 14.6589 37.4346 16.0103 36.4796 17.8151C35.5245 19.6198 35.3255 21.73 35.9263 23.6815L64.6383 116.939C65.2391 118.891 66.5905 120.524 68.3953 121.479C70.2 122.434 72.3103 122.633 74.2618 122.032L110.503 110.874C112.454 110.273 114.087 108.922 115.042 107.117C115.997 105.312 116.196 103.202 115.596 101.25L86.8837 7.99285C86.2829 6.04137 84.9314 4.40848 83.1267 3.45342C81.3219 2.49835 79.2117 2.29934 77.2602 2.90016Z" fill="white"/>
<path d="M223.179 206.507L138.571 176.094C136.566 175.371 134.93 173.882 134.022 171.954C133.114 170.026 133.007 167.817 133.726 165.811L177.832 43.11C178.555 41.1054 180.044 39.4695 181.972 38.5612C183.9 37.6529 186.109 37.5464 188.115 38.265L272.723 68.6785C274.728 69.4016 276.364 70.8903 277.272 72.8181C278.18 74.7458 278.287 76.9551 277.568 78.9613L233.462 201.662C232.739 203.667 231.25 205.303 229.322 206.211C227.394 207.119 225.185 207.226 223.179 206.507Z" fill="#3F3D56"/>
<path d="M225.063 201.735L140.157 171.214C139.539 170.991 139.034 170.532 138.754 169.938C138.475 169.344 138.442 168.663 138.663 168.044L183.062 44.5309C183.285 43.913 183.743 43.4087 184.338 43.1287C184.932 42.8487 185.613 42.8159 186.231 43.0374L271.138 73.5579C271.755 73.7809 272.26 74.2398 272.54 74.834C272.82 75.4283 272.853 76.1093 272.631 76.7278L228.233 200.241C228.01 200.859 227.551 201.363 226.956 201.643C226.362 201.923 225.681 201.956 225.063 201.735Z" fill="white"/>
<path d="M229.265 56.3563C229.642 56.3563 229.949 56.0502 229.949 55.6725C229.949 55.2949 229.642 54.9888 229.265 54.9888C228.887 54.9888 228.581 55.2949 228.581 55.6725C228.581 56.0502 228.887 56.3563 229.265 56.3563Z" fill="white"/>
<path d="M88.7207 74.3638C95.9317 67.1528 95.9317 55.4614 88.7207 48.2504C81.5097 41.0394 69.8183 41.0394 62.6073 48.2504C55.3962 55.4614 55.3962 67.1528 62.6073 74.3638C69.8183 81.5748 81.5097 81.5748 88.7207 74.3638Z" fill="#6C63FF"/>
<path d="M77.5974 70.119L68.4578 63.9189L69.2559 62.7432L76.8224 67.8765L82.2911 50.7689L83.6438 51.2013L77.5974 70.119Z" fill="white"/>
<path d="M222.25 137.311C231.384 128.178 231.384 113.37 222.25 104.237C213.117 95.1035 198.309 95.1035 189.176 104.237C180.043 113.37 180.043 128.178 189.176 137.311C198.309 146.444 213.117 146.444 222.25 137.311Z" fill="#6C63FF"/>
<path d="M200.073 130.711L196.714 117.132L198.461 116.701L201.242 127.943L220.878 116.46L221.786 118.012L200.073 130.711Z" fill="white"/>
<path d="M53.9026 190.694H57.0599L58.5619 178.516L53.902 178.516L53.9026 190.694Z" fill="#A0616A"/>
<path d="M53.0972 189.663L59.3149 189.663C60.3658 189.663 61.3738 190.08 62.1169 190.824C62.86 191.567 63.2775 192.574 63.2776 193.625V193.754L53.0974 193.754L53.0972 189.663Z" fill="#2F2E41"/>
<path d="M29.3194 189.327L32.4411 189.799L35.7468 177.983L31.6544 177.287L29.3194 189.327Z" fill="#A0616A"/>
<path d="M28.6773 188.188L34.8252 189.117C35.8642 189.274 36.7985 189.838 37.4222 190.683C38.0458 191.529 38.308 192.588 38.151 193.627L38.1317 193.754L28.0659 192.233L28.6773 188.188Z" fill="#2F2E41"/>
<path d="M47.6056 133.285L54.9475 131.686L59.0654 143.457L59.1942 188.91L53.2011 188.873L50.6959 152.084L34.7294 186.077L28.2913 185.305L42.3264 148.865C42.3264 148.865 41.5538 142.427 44.0003 139.208L43.4852 135.86L47.6056 133.285Z" fill="#2F2E41"/>
<path d="M40.7132 124.63C40.5463 124.129 40.5286 123.59 40.6622 123.078C40.7958 122.567 41.0749 122.106 41.4657 121.75L43.0176 120.34L47.3927 119.602L50.1282 119.105L56.6148 135.298L43.8463 136.752C42.9091 136.55 42.5347 136.037 43.0801 135.018L40.7132 124.63Z" fill="#6C63FF"/>
<path d="M56.1733 121.948L55.8079 118.343L61.2141 116.574L70.9187 112.983C71.0217 112.576 71.2458 112.209 71.5615 111.933C71.8772 111.656 72.2695 111.481 72.6866 111.432C73.1036 111.383 73.5257 111.462 73.8971 111.658C74.2684 111.854 74.5715 112.158 74.7663 112.53C74.961 112.902 75.0382 113.324 74.9877 113.741C74.9372 114.158 74.7613 114.55 74.4833 114.864C74.2053 115.179 73.8383 115.402 73.4308 115.504C73.0234 115.605 72.5947 115.581 72.2015 115.433L62.8482 120.074L56.1733 121.948Z" fill="#A0616A"/>
<path d="M50.2876 124.797C49.7663 124.97 49.2059 124.991 48.6734 124.855C48.141 124.718 47.659 124.432 47.2851 124.029C46.9195 123.658 46.6703 123.188 46.5679 122.677C46.4656 122.166 46.5145 121.637 46.7088 121.153C46.8436 120.808 47.0522 120.495 47.32 120.239C47.5879 119.982 47.9085 119.787 48.2595 119.667C51.3755 118.494 56.1851 117.501 56.2331 117.491L56.3097 117.475L59.7179 121.672L50.2876 124.797Z" fill="#6C63FF"/>
<path d="M45.4726 118.052C48.125 118.052 50.2751 115.902 50.2751 113.25C50.2751 110.598 48.125 108.447 45.4726 108.447C42.8202 108.447 40.67 110.598 40.67 113.25C40.67 115.902 42.8202 118.052 45.4726 118.052Z" fill="#A0616A"/>
<path d="M41.5844 120.092C40.8397 120.092 40.0956 120.046 39.3564 119.956L39.255 119.944L38.4814 115.744C38.1533 113.963 38.5191 112.125 39.5038 110.606C40.4884 109.087 42.0171 108.002 43.7762 107.575C43.8936 107.545 44.0169 107.548 44.1326 107.584C44.2482 107.62 44.3518 107.687 44.4318 107.778L44.6163 107.713C45.3227 107.467 46.0707 107.362 46.8175 107.405C47.5644 107.448 48.2955 107.637 48.9691 107.963C49.6428 108.288 50.2458 108.743 50.7436 109.301C51.2415 109.859 51.6245 110.51 51.8708 111.217L51.9166 111.348L50.6854 111.777C50.3017 111.911 49.9528 112.129 49.6638 112.414C49.3749 112.7 49.1532 113.046 49.015 113.428C48.8767 113.81 48.8254 114.218 48.8647 114.623C48.904 115.027 49.0329 115.418 49.2421 115.766L50.5009 117.862L50.3669 117.929C47.6499 119.33 44.6412 120.071 41.5844 120.092Z" fill="#2F2E41"/>
<path d="M106.151 194.209H0.277883C0.204184 194.209 0.133503 194.18 0.0813898 194.128C0.0292767 194.076 0 194.005 0 193.932C0 193.858 0.0292767 193.787 0.0813898 193.735C0.133503 193.683 0.204184 193.654 0.277883 193.654H106.151C106.225 193.654 106.296 193.683 106.348 193.735C106.4 193.787 106.429 193.858 106.429 193.932C106.429 194.005 106.4 194.076 106.348 194.128C106.296 194.18 106.225 194.209 106.151 194.209Z" fill="#CACACA"/>
<path d="M293.722 207.826H187.849C187.775 207.826 187.704 207.796 187.652 207.744C187.6 207.692 187.571 207.622 187.571 207.548C187.571 207.474 187.6 207.403 187.652 207.351C187.704 207.299 187.775 207.27 187.849 207.27H293.722C293.796 207.27 293.867 207.299 293.919 207.351C293.971 207.403 294 207.474 294 207.548C294 207.622 293.971 207.692 293.919 207.744C293.867 207.796 293.796 207.826 293.722 207.826Z" fill="#CACACA"/>
<path d="M236.22 159.327C236.455 159.13 236.643 158.884 236.773 158.607C236.902 158.329 236.969 158.027 236.969 157.721C236.969 157.415 236.902 157.112 236.773 156.835C236.643 156.557 236.454 156.312 236.219 156.115L234.662 128.71L230.219 129.714L233.156 156.479C232.852 156.895 232.712 157.409 232.761 157.922C232.81 158.435 233.046 158.913 233.423 159.264C233.801 159.615 234.294 159.815 234.81 159.827C235.325 159.838 235.827 159.66 236.22 159.327Z" fill="#9F616A"/>
<path d="M254.261 162.895C254.019 162.707 253.822 162.469 253.682 162.196C253.543 161.923 253.465 161.623 253.454 161.317C253.443 161.011 253.499 160.707 253.618 160.425C253.738 160.143 253.918 159.891 254.145 159.686L254.709 132.242L259.185 133.085L257.219 159.939C257.538 160.344 257.697 160.852 257.667 161.366C257.636 161.881 257.418 162.366 257.053 162.731C256.689 163.095 256.203 163.313 255.688 163.344C255.174 163.374 254.666 163.214 254.261 162.895Z" fill="#9F616A"/>
<path d="M256.629 203.682L260.115 203.682L261.109 195.55L256.629 195.55L256.629 203.682Z" fill="#9F616A"/>
<path d="M255.74 202.544L262.605 202.544H262.605C263.766 202.544 264.878 203.005 265.699 203.825C266.519 204.646 266.98 205.758 266.98 206.919V207.061L255.74 207.061L255.74 202.544Z" fill="#2F2E41"/>
<path d="M234.878 203.682L238.364 203.682L239.358 190.237H234.877L234.878 203.682Z" fill="#9F616A"/>
<path d="M233.989 202.544L240.854 202.544C242.014 202.544 243.127 203.005 243.947 203.825C244.768 204.646 245.229 205.758 245.229 206.919V207.061L233.989 207.061L233.989 202.544Z" fill="#2F2E41"/>
<path d="M248.92 116.886C252.069 116.886 254.623 114.333 254.623 111.183C254.623 108.034 252.069 105.481 248.92 105.481C245.77 105.481 243.217 108.034 243.217 111.183C243.217 114.333 245.77 116.886 248.92 116.886Z" fill="#9F616A"/>
<path d="M256.168 124.343C256.168 124.343 258.702 124.554 258.914 125.822C259.125 127.089 258.914 130.891 258.914 130.891C258.914 130.891 260.603 135.96 258.914 137.228C257.224 138.495 252.788 138.706 252.788 138.706L256.168 124.343Z" fill="#E4E4E4"/>
<path d="M234.623 153.069L232.3 156.871C232.3 156.871 233.145 173.557 233.356 173.98C233.524 174.228 233.599 174.527 233.567 174.825V177.148L234.201 197.425C234.201 197.425 232.511 198.27 234.623 198.904C236.736 199.537 239.481 199.749 239.904 197.636C240.326 195.524 240.346 177.928 240.326 177.359L240.538 176.514L243.917 164.052L251.732 181.372L256.379 200.805C256.379 200.805 263.412 201.617 262.144 198.871C260.877 196.125 257.857 175.67 257.857 175.67C257.857 175.67 257.224 173.557 257.224 173.135C257.224 172.712 257.013 172.501 257.013 172.079C257.013 171.656 256.801 170.389 256.801 170.389L255.323 157.082L234.623 153.069Z" fill="#2F2E41"/>
<path d="M236.736 120.753C236.736 120.753 234.201 120.541 233.567 122.653C232.934 124.766 227.653 132.792 228.709 133.637C229.765 134.482 237.792 137.439 238.003 137.228C238.214 137.016 236.736 120.753 236.736 120.753Z" fill="#E4E4E4"/>
<path d="M255.561 107.547C255.321 106.656 254.984 105.765 254.297 105.15C253.601 104.531 252.707 104.179 251.776 104.157C250.713 103.541 249.52 103.184 248.294 103.114C247.067 103.045 245.842 103.265 244.716 103.757C244.594 103.511 244.397 103.31 244.154 103.183C244.086 103.77 244.018 104.356 243.95 104.943C243.688 104.746 243.426 104.549 243.164 104.351C243.151 104.699 243.138 105.046 243.125 105.393C242.885 105.186 242.645 104.98 242.405 104.773C242.354 106.003 243.377 107.067 244.534 107.486C245.69 107.905 246.959 107.828 248.188 107.77C248.795 107.741 249.486 107.751 249.896 108.2C250.325 108.67 250.244 109.391 250.254 110.027C250.269 110.922 251.188 110.484 251.649 111.251C251.847 111.506 251.971 111.81 252.006 112.13C251.963 112.421 251.857 112.699 251.697 112.946C251.358 113.647 250.683 115.827 251.005 116.535C251.601 116.202 252.197 115.868 252.793 115.535C252.793 115.535 256.719 111.859 255.561 107.547Z" fill="#2F2E41"/>
<path d="M254.478 136.594C254.478 136.594 258.702 125.822 258.491 124.977C258.28 124.132 253.01 120.665 253.01 120.665C252.809 120.64 252.619 120.616 252.426 120.592C252.455 120.518 252.475 120.44 252.484 120.361L252.575 119.534C252.603 119.277 252.528 119.02 252.366 118.818C252.205 118.617 251.97 118.488 251.713 118.46L245.016 117.726C244.76 117.698 244.502 117.773 244.301 117.934C244.099 118.096 243.971 118.331 243.942 118.587L243.864 119.303C243.511 119.215 243.495 119.181 243.495 119.181C243.495 119.181 237.581 120.119 236.102 120.541C234.623 120.964 235.891 137.016 235.891 137.016C235.891 137.016 234.835 151.802 234.201 152.224C233.567 152.647 234.201 152.435 233.567 154.125C233.484 154.348 234.651 153.104 235.151 153.386C238.447 155.244 251.811 159.589 255.112 159.406C256.167 148.393 254.056 144.831 254.056 144.831L254.478 136.594Z" fill="#E4E4E4"/>
</g>
<defs>
<clipPath id="clip0_368_1021">
<rect width="294" height="207.826" fill="white"/>
</clipPath>
</defs>
</svg>
