<svg width="150" height="86" viewBox="0 0 150 86" fill="none" xmlns="http://www.w3.org/2000/svg">
<g clip-path="url(#clip0_368_1102)">
<path d="M119.553 85.2097H23.7501C22.7708 85.2087 21.9772 84.5372 21.9761 83.7086V14.3863C21.9772 13.5576 22.7708 12.8861 23.7501 12.8852H119.553C120.532 12.8862 121.326 13.5577 121.327 14.3865V83.709C121.326 84.5381 120.532 85.2097 119.553 85.2097ZM23.7501 13.4856C23.1626 13.4856 22.6863 13.889 22.6857 14.3863V83.709C22.6857 84.2062 23.1626 84.6092 23.7503 84.6098H119.553C120.141 84.6098 120.617 84.2062 120.618 83.709V14.3863C120.618 13.8892 120.141 13.4862 119.553 13.4856H23.7501Z" fill="#E6E6E6"/>
<path d="M63.1529 41.0428L88.7052 35.9335L89.2601 49.9523L87.2597 65.8329L88.7052 84.772H61.1478L61.865 62.7982C61.865 62.7982 55.7161 54.1226 59.3385 45.3777L63.1529 41.0428Z" fill="#6C63FF"/>
<path d="M120.13 7.78701C120.258 8.37543 120.255 8.98476 120.122 9.5721C119.99 10.1594 119.73 10.7105 119.361 11.1865C118.992 11.6624 118.523 12.0517 117.987 12.3269C117.452 12.6021 116.862 12.7566 116.261 12.7793L91.7575 41.1934L86.0607 34.2797L111.938 8.52423C111.966 7.51065 112.366 6.54284 113.061 5.8042C113.755 5.06556 114.697 4.60742 115.707 4.51662C116.717 4.42581 117.725 4.70865 118.54 5.31152C119.355 5.91439 119.921 6.7954 120.13 7.7876L120.13 7.78701Z" fill="#FEB8B8"/>
<path d="M97.0921 38.0923C97.0979 38.3576 97.0464 38.6211 96.941 38.8647C96.8356 39.1084 96.679 39.3264 96.4816 39.5039L89.5917 45.7062C89.1641 46.2268 88.6382 46.6581 88.0439 46.9754C87.4497 47.2928 86.7987 47.49 86.1282 47.5557C85.4578 47.6215 84.7809 47.5545 84.1363 47.3587C83.4917 47.1629 82.892 46.842 82.3714 46.4144C81.8508 45.9868 81.4195 45.4609 81.1022 44.8666C80.7849 44.2723 80.5877 43.6214 80.5219 42.9509C80.4562 42.2804 80.5231 41.6036 80.7189 40.959C80.9148 40.3144 81.2356 39.7147 81.6632 39.1941L86.4731 31.2349C86.6103 31.0077 86.795 30.8128 87.0144 30.6634C87.2338 30.514 87.4828 30.4136 87.7445 30.3691C88.0061 30.3247 88.2743 30.3371 88.5308 30.4056C88.7872 30.4741 89.0259 30.5971 89.2305 30.7662L96.4221 36.7089C96.6268 36.8779 96.7927 37.0891 96.9083 37.3281C97.0239 37.5671 97.0866 37.8282 97.0922 38.0936L97.0921 38.0923Z" fill="#6C63FF"/>
<path d="M23.0873 74.5603C23.049 73.9593 23.143 73.3572 23.3625 72.7964C23.5821 72.2356 23.9219 71.7298 24.3581 71.3146C24.7943 70.8993 25.3163 70.5848 25.8872 70.3931C26.4581 70.2014 27.0641 70.1372 27.6625 70.205L56.1515 45.7901L60.7464 53.4803L31.2978 75.061C31.1173 76.0588 30.577 76.9558 29.7794 77.5818C28.9817 78.2079 27.9821 78.5196 26.9699 78.4578C25.9578 78.396 25.0035 77.9651 24.2879 77.2467C23.5723 76.5282 23.1451 75.5722 23.0873 74.5599V74.5603Z" fill="#FEB8B8"/>
<path d="M75.0274 28.9181C80.7724 28.9181 85.4296 24.2609 85.4296 18.5159C85.4296 12.7709 80.7724 8.11365 75.0274 8.11365C69.2824 8.11365 64.6251 12.7709 64.6251 18.5159C64.6251 24.2609 69.2824 28.9181 75.0274 28.9181Z" fill="#3F3D56"/>
<path d="M50.4115 48.0549C50.4456 47.7917 50.5361 47.5389 50.6768 47.3138C50.8175 47.0887 51.0051 46.8967 51.2268 46.7507L58.9695 41.6524C59.4676 41.1985 60.0503 40.8472 60.6842 40.6185C61.3182 40.3899 61.991 40.2884 62.6642 40.3199C63.3374 40.3514 63.9978 40.5152 64.6076 40.802C65.2175 41.0888 65.7648 41.493 66.2184 41.9914C66.672 42.4899 67.023 43.0728 67.2512 43.7069C67.4794 44.341 67.5804 45.0139 67.5485 45.6871C67.5166 46.3602 67.3523 47.0205 67.0651 47.6302C66.7779 48.2398 66.3733 48.7869 65.8746 49.2402C65.8601 49.2534 65.8455 49.2666 65.8308 49.2797L59.8806 56.4286C59.7108 56.6326 59.499 56.7976 59.2597 56.9124C59.0204 57.0271 58.7591 57.089 58.4937 57.0937C58.2283 57.0984 57.9651 57.0459 57.7218 56.9397C57.4786 56.8335 57.2611 56.6761 57.0841 56.4782L50.8657 49.5244C50.6887 49.3266 50.5564 49.0929 50.4779 48.8393C50.3994 48.5857 50.3765 48.3181 50.4109 48.0549H50.4115Z" fill="#6C63FF"/>
<path d="M74.0432 34.5014C79.2447 34.5014 83.4614 30.2847 83.4614 25.0833C83.4614 19.8818 79.2447 15.6651 74.0432 15.6651C68.8418 15.6651 64.6251 19.8818 64.6251 25.0833C64.6251 30.2847 68.8418 34.5014 74.0432 34.5014Z" fill="#FEB8B8"/>
<path d="M80.457 0C79.6708 1.1227 78.5056 1.92366 77.1758 2.25546C74.8815 2.86988 77.1571 6.3174 77.1571 6.3174C77.1571 6.3174 76.3297 5.06373 77.5232 3.73603C78.7167 2.40834 80.6375 1.50072 80.457 0Z" fill="#3F3D56"/>
<path d="M76.7507 10.0433C78.3518 10.0433 79.6497 8.74543 79.6497 7.14439C79.6497 5.54335 78.3518 4.24545 76.7507 4.24545C75.1497 4.24545 73.8518 5.54335 73.8518 7.14439C73.8518 8.74543 75.1497 10.0433 76.7507 10.0433Z" fill="#3F3D56"/>
<path d="M81.0825 9.57436C78.7191 8.68047 74.7841 8.22725 72.7598 8.53767L73.0372 6.51028C74.9835 7.51617 78.9006 7.98895 81.3599 7.54697L81.0825 9.57436Z" fill="#6C63FF"/>
<path d="M75.6223 9.95355C75.6223 9.95355 72.6605 14.88 65.7732 16.7243C58.8859 18.5686 65.717 28.9183 65.717 28.9183C65.717 28.9183 63.233 25.1548 66.8158 21.1691C70.3987 17.1834 76.1643 14.4585 75.6223 9.95355Z" fill="#3F3D56"/>
<path d="M76.7447 10.0004C76.7447 10.0004 79.5901 16.7672 82.7139 17.4071C85.8377 18.0469 85.6007 28.7391 80.7157 30.3425C80.7157 30.3425 84.2784 24.0742 81.233 19.8703C78.1876 15.6665 76.2649 12.3432 76.7447 10.0004Z" fill="#3F3D56"/>
<path d="M134.139 74.7171C136.238 76.9695 136.346 80.2802 136.346 80.2802C136.346 80.2802 133.052 79.9388 130.952 77.6864C128.853 75.434 128.745 72.1233 128.745 72.1233C128.745 72.1233 132.04 72.4647 134.139 74.7171Z" fill="#E6E6E6"/>
<path d="M140.747 78.233C138.494 80.3321 135.184 80.4405 135.184 80.4405C135.184 80.4405 135.525 77.1458 137.777 75.0467C140.03 72.9476 143.341 72.8391 143.341 72.8391C143.341 72.8391 142.999 76.1339 140.747 78.233Z" fill="#E6E6E6"/>
<path d="M140.187 84.9184H131.902C131.743 84.9185 131.588 84.8738 131.453 84.7895C131.318 84.7052 131.21 84.5846 131.14 84.4417L129.337 80.7337C129.274 80.6045 129.245 80.4614 129.252 80.3179C129.26 80.1744 129.304 80.0352 129.38 79.9133C129.456 79.7915 129.562 79.6911 129.688 79.6215C129.814 79.5519 129.955 79.5155 130.099 79.5156H141.991C142.135 79.5155 142.276 79.5519 142.402 79.6215C142.527 79.6911 142.633 79.7915 142.71 79.9133C142.786 80.0352 142.83 80.1744 142.837 80.3179C142.845 80.4614 142.816 80.6045 142.753 80.7337L140.949 84.4415C140.88 84.5845 140.771 84.705 140.637 84.7893C140.502 84.8736 140.346 84.9183 140.187 84.9182L140.187 84.9184Z" fill="#E5E5E5"/>
</g>
<defs>
<clipPath id="clip0_368_1102">
<rect width="158" height="85.2097" fill="white" transform="translate(-8)"/>
</clipPath>
</defs>
</svg>
