<svg width="158" height="95" viewBox="0 0 158 95" fill="none" xmlns="http://www.w3.org/2000/svg">
<g clip-path="url(#clip0_368_1145)">
<path d="M8.24359 94.7838C8.23302 94.7373 7.21077 90.0758 9.29846 86.2041C11.3861 82.3326 15.8425 80.6252 15.8873 80.6083L16.0909 80.5319L16.1391 80.7442C16.1496 80.7907 17.1719 85.4523 15.0842 89.3239C12.9966 93.1954 8.54015 94.9028 8.49537 94.9197L8.29161 94.9961L8.24359 94.7838ZM15.8116 81.05C14.919 81.4339 11.396 83.1145 9.63275 86.3843C7.86934 89.6545 8.40137 93.5217 8.57102 94.4781C9.46329 94.095 12.9849 92.4171 14.7499 89.1437C16.5132 85.8737 15.9814 82.0068 15.8116 81.05Z" fill="#F1F1F1"/>
<path d="M13.4888 87.9658C9.73713 90.223 8.29224 94.7063 8.29224 94.7063C8.29224 94.7063 12.93 95.53 16.6817 93.2729C20.4334 91.0157 21.8783 86.5325 21.8783 86.5325C21.8783 86.5325 17.2405 85.7087 13.4888 87.9658Z" fill="#F1F1F1"/>
<path d="M70.3031 51.782C70.3603 51.4867 70.3521 51.1825 70.2789 50.8907C70.2058 50.5989 70.0696 50.3267 69.8799 50.0933C69.6902 49.8598 69.4517 49.6708 69.181 49.5395C68.9104 49.4083 68.6143 49.3379 68.3135 49.3335L66.5762 44.9644L63.6636 45.3726L66.2037 51.5081C66.2297 52.0139 66.4404 52.4926 66.7957 52.8534C67.1511 53.2142 67.6264 53.4322 68.1317 53.466C68.6371 53.4997 69.1372 53.3469 69.5374 53.0366C69.9376 52.7262 70.21 52.2798 70.3031 51.782Z" fill="#9F616A"/>
<path d="M64.9372 50.2469L64.0347 48.0948L58.4109 37.3898L58.7167 17.5816L58.7754 17.5738C62.3739 17.0984 64.8087 33.6791 64.9106 34.3852L68.4639 46.5376L69.3097 49.2162L64.9372 50.2469Z" fill="#6C63FF"/>
<path d="M56.296 92.0156L59.0303 92.0154L60.331 81.4687L56.2954 81.4689L56.296 92.0156Z" fill="#9F616A"/>
<path d="M55.5984 91.1229L60.9833 91.1227H60.9835C61.8936 91.1227 62.7665 91.4843 63.41 92.1278C64.0536 92.7714 64.4151 93.6442 64.4152 94.5543V94.6658L55.5985 94.6662L55.5984 91.1229Z" fill="#2F2E41"/>
<path d="M31.1545 87.8496L33.3981 89.4129L40.4953 81.5038L37.1842 79.1965L31.1545 87.8496Z" fill="#9F616A"/>
<path d="M31.0928 86.7184L35.5109 89.7971L35.5111 89.7972C36.2578 90.3176 36.7671 91.1133 36.9272 92.0092C37.0872 92.9051 36.8848 93.828 36.3645 94.5747L36.3008 94.6662L29.0671 89.6255L31.0928 86.7184Z" fill="#2F2E41"/>
<path d="M54.7932 89.5366L54.675 69.7516L52.9546 57.311L49.747 68.2513L49.7407 68.2603L38.1168 85.1358L33.5938 82.8441L33.6185 82.7852C33.8949 82.1278 40.4082 66.6866 42.1589 66.6866C42.3118 66.6973 42.465 66.6707 42.6053 66.609C42.7456 66.5474 42.8688 66.4525 42.9644 66.3327C43.4782 65.6465 43.0597 64.1905 43.0555 64.1759C42.5543 62.0978 43.8144 61.39 44.0654 61.2719L44.7404 47.3369L44.8104 47.3418L63.1106 48.6254L62.3428 66.0478L60.6913 88.8746L60.6346 88.881L54.7932 89.5366Z" fill="#2F2E41"/>
<path d="M63.3902 51.7132L63.3111 51.7067L43.6296 50.1203L43.6782 43.6082L44.6415 26.6049L44.647 26.5931L48.57 18.0764L51.3508 16.8172L55.4081 16.6037L55.418 16.6061L59.1208 17.5235L62.9726 45.174L63.3902 51.7132Z" fill="#6C63FF"/>
<path d="M56.0439 14.421C58.555 13.0482 59.4779 9.89972 58.1052 7.38855C56.7325 4.87738 53.5839 3.95449 51.0728 5.32722C48.5616 6.69995 47.6387 9.84848 49.0114 12.3597C50.3842 14.8708 53.5327 15.7937 56.0439 14.421Z" fill="#9F616A"/>
<path d="M48.3469 11.1749V9.1559C48.3469 9.1559 46.7187 7.23828 48.5097 6.75523C48.5097 6.75523 48.9982 1.92473 53.2315 4.17896C53.2315 4.17896 59.093 3.21286 58.4417 6.59421C58.4417 6.59421 59.9071 5.71145 59.4187 7.96569L58.474 11.5969C58.474 11.5969 58.9302 9.19821 57.4648 8.87617L56.6507 8.39312C56.6507 8.39312 54.3712 10.6474 50.952 7.91007C50.952 7.91007 49.4866 7.56032 49.6495 9.00947C49.8123 10.4586 48.3469 11.1749 48.3469 11.1749Z" fill="#2F2E41"/>
<path d="M53.0188 46.8501C53.0221 46.5493 52.9594 46.2515 52.8351 45.9776C52.7108 45.7037 52.528 45.4603 52.2995 45.2647C52.071 45.0691 51.8024 44.9259 51.5126 44.8454C51.2228 44.7648 50.9188 44.7488 50.6221 44.7984L48.1289 40.812L45.3369 41.7362L48.9368 47.3163C49.0532 47.8092 49.3463 48.2423 49.7607 48.5335C50.175 48.8247 50.6818 48.9538 51.1849 48.8964C51.6881 48.8389 52.1527 48.5988 52.4907 48.2217C52.8287 47.8446 53.0166 47.3565 53.0188 46.8501Z" fill="#9F616A"/>
<path d="M46.5794 45.5935L42.0688 36.4359L42.0728 36.4136C42.091 36.3122 43.9067 26.2309 45.2953 22.5253C46.6927 18.7962 48.6056 18.0475 48.6863 18.0175L48.7267 18.0024L50.4418 19.6476L48.0659 35.5058L50.6269 43.1539L46.5794 45.5935Z" fill="#6C63FF"/>
<path d="M158 0H149.267V8.73341H158V0Z" fill="#F1F1F1"/>
<path d="M89.6516 33.9844H80.9182V42.7178H89.6516V33.9844Z" fill="#F1F1F1"/>
<path d="M85.8201 38.8908H154.866V3.93649H85.8201V38.8908Z" fill="white"/>
<path d="M155.436 39.4604H85.2505V3.36688H155.436V39.4604ZM86.3896 38.3212H154.297V4.50602H86.3896V38.3212Z" fill="#E5E5E5"/>
<path d="M147.231 16.1978H94.1079V17.9595H147.231V16.1978Z" fill="#E5E5E5"/>
<path d="M147.231 20.4702H94.1079V22.2319H147.231V20.4702Z" fill="#E5E5E5"/>
<path d="M147.231 26.7784H137.358V28.3073H147.231V26.7784Z" fill="#6C63FF"/>
<path d="M72.5253 94.9884H0.189857C0.139504 94.9884 0.0912127 94.9684 0.0556076 94.9327C0.0200026 94.8971 0 94.8489 0 94.7985C0 94.7481 0.0200026 94.6998 0.0556076 94.6642C0.0912127 94.6286 0.139504 94.6086 0.189857 94.6086H72.5253C72.5757 94.6086 72.624 94.6286 72.6596 94.6642C72.6952 94.6998 72.7152 94.7481 72.7152 94.7985C72.7152 94.8489 72.6952 94.8971 72.6596 94.9327C72.624 94.9684 72.5757 94.9884 72.5253 94.9884Z" fill="#CBCBCB"/>
</g>
<defs>
<clipPath id="clip0_368_1145">
<rect width="158" height="94.996" fill="white"/>
</clipPath>
</defs>
</svg>
