<svg width="169" height="169" viewBox="0 0 169 169" fill="none" xmlns="http://www.w3.org/2000/svg">
<g clip-path="url(#clip0_368_766)">
<path d="M111.473 44.5593H83.7349C83.1276 44.5612 82.5279 44.4244 81.9815 44.1596C81.435 43.8948 80.9561 43.5088 80.5813 43.031C80.1997 42.5487 79.9331 41.9857 79.8019 41.3848C79.6707 40.784 79.6783 40.1611 79.8242 39.5636C82.3807 28.8556 82.3807 17.6961 79.824 6.98801C79.6783 6.39056 79.6707 5.76773 79.8019 5.16691C79.9331 4.5661 80.1997 4.00313 80.5812 3.52083C80.956 3.04302 81.4349 2.65701 81.9814 2.39217C82.5279 2.12733 83.1276 1.99064 83.7349 1.99251H111.473C112.431 1.99526 113.357 2.33788 114.085 2.95933C114.814 3.58078 115.299 4.44071 115.452 5.38597C117.278 17.2427 117.278 29.3091 115.452 41.1658C115.299 42.1111 114.814 42.971 114.085 43.5925C113.357 44.2139 112.431 44.5566 111.473 44.5593Z" fill="#E6E6E6"/>
<path d="M83.7348 4.07966C83.4432 4.07868 83.1552 4.14423 82.8927 4.27132C82.6302 4.39841 82.4002 4.5837 82.2201 4.81308C82.0347 5.0481 81.9053 5.32232 81.8417 5.61488C81.7782 5.90744 81.7823 6.21064 81.8536 6.5014C84.4866 17.5294 84.4866 29.0224 81.8537 40.0504C81.7824 40.3411 81.7783 40.6443 81.8418 40.9368C81.9052 41.2293 82.0346 41.5034 82.22 41.7384C82.4001 41.9678 82.6302 42.1534 82.8927 42.2805C83.1552 42.4076 83.4432 42.4732 83.7348 42.4722H111.473C111.933 42.4723 112.378 42.3092 112.729 42.0119C113.08 41.7146 113.314 41.3024 113.39 40.8487C115.183 29.2021 115.183 17.3497 113.39 5.7031C113.314 5.24939 113.08 4.83719 112.729 4.5399C112.378 4.2426 111.933 4.0795 111.473 4.07966L83.7348 4.07966Z" fill="white"/>
<path d="M105.42 14.1156H90.8642C90.3109 14.115 89.7804 13.8949 89.3891 13.5036C88.9979 13.1123 88.7778 12.5818 88.7772 12.0285V11.2129C88.7778 10.6596 88.9979 10.1291 89.3891 9.73781C89.7804 9.34654 90.3109 9.12646 90.8642 9.12585H105.42C105.974 9.12646 106.504 9.34654 106.895 9.73781C107.287 10.1291 107.507 10.6596 107.507 11.2129V12.0285C107.507 12.5819 107.287 13.1124 106.895 13.5036C106.504 13.8949 105.974 14.115 105.42 14.1156Z" fill="#E6E6E6"/>
<path d="M105.42 24.421H90.8642C90.3109 24.4204 89.7804 24.2003 89.3891 23.8091C88.9979 23.4178 88.7778 22.8873 88.7772 22.334V21.5184C88.7778 20.965 88.9979 20.4345 89.3891 20.0433C89.7804 19.652 90.3109 19.4319 90.8642 19.4313H105.42C105.974 19.4319 106.504 19.652 106.895 20.0433C107.287 20.4345 107.507 20.965 107.507 21.5184V22.334C107.507 22.8873 107.287 23.4178 106.895 23.8091C106.504 24.2003 105.974 24.4204 105.42 24.421Z" fill="#E6E6E6"/>
<path d="M105.42 34.7265H90.8642C90.3109 34.7259 89.7804 34.5058 89.3891 34.1146C88.9979 33.7233 88.7778 33.1928 88.7772 32.6394V31.8239C88.7778 31.2705 88.9979 30.74 89.3891 30.3488C89.7804 29.9575 90.3109 29.7374 90.8642 29.7368H105.42C105.974 29.7374 106.504 29.9575 106.895 30.3488C107.287 30.74 107.507 31.2705 107.507 31.8239V32.6394C107.507 33.1928 107.287 33.7233 106.895 34.1146C106.504 34.5058 105.974 34.7259 105.42 34.7265Z" fill="#E6E6E6"/>
<path d="M163.652 70.9963H135.913C135.306 70.9982 134.706 70.8615 134.16 70.5966C133.613 70.3318 133.135 69.9458 132.76 69.468C132.378 68.9857 132.112 68.4227 131.98 67.8219C131.849 67.221 131.857 66.5981 132.003 66.0007C134.559 55.2926 134.559 44.1331 132.002 33.425C131.857 32.8276 131.849 32.2047 131.98 31.6039C132.112 31.0031 132.378 30.4401 132.76 29.9578C133.134 29.48 133.613 29.094 134.16 28.8292C134.706 28.5643 135.306 28.4277 135.913 28.4295H163.652C164.609 28.4323 165.535 28.7749 166.264 29.3963C166.993 30.0178 167.477 30.8777 167.631 31.823C169.456 43.6797 169.456 55.7461 167.631 67.6029C167.477 68.5481 166.993 69.4081 166.264 70.0295C165.535 70.651 164.609 70.9936 163.652 70.9963Z" fill="#E6E6E6"/>
<path d="M135.913 30.5167C135.622 30.5157 135.334 30.5812 135.071 30.7083C134.809 30.8354 134.579 31.0207 134.398 31.2501C134.213 31.4851 134.084 31.7593 134.02 32.0519C133.957 32.3445 133.961 32.6477 134.032 32.9384C136.665 43.9664 136.665 55.4594 134.032 66.4874C133.961 66.7781 133.957 67.0813 134.02 67.3738C134.084 67.6663 134.213 67.9405 134.398 68.1754C134.578 68.4049 134.809 68.5904 135.071 68.7175C135.334 68.8446 135.622 68.9102 135.913 68.9092H163.652C164.112 68.9093 164.557 68.7463 164.908 68.449C165.258 68.1516 165.493 67.7394 165.568 67.2857C167.361 55.6391 167.361 43.7867 165.568 32.1401C165.493 31.6864 165.258 31.2742 164.908 30.9769C164.557 30.6796 164.112 30.5165 163.652 30.5167L135.913 30.5167Z" fill="white"/>
<path d="M108.343 101.086H80.6041C79.9705 101.088 79.3449 100.945 78.7748 100.669C78.2046 100.392 77.705 99.9898 77.314 99.4913C76.916 98.9884 76.638 98.4013 76.5012 97.7748C76.3644 97.1482 76.3723 96.4987 76.5243 95.8757C79.0744 85.1943 79.0744 74.0626 76.5242 63.3813C76.3722 62.7582 76.3643 62.1088 76.5012 61.4823C76.638 60.8557 76.916 60.2687 77.3139 59.7658C77.705 59.2673 78.2046 58.8646 78.7747 58.5883C79.3449 58.3119 79.9705 58.1693 80.6041 58.1712H108.343C109.342 58.1742 110.307 58.5318 111.068 59.1802C111.828 59.8287 112.333 60.7259 112.494 61.7121C114.322 73.5864 114.322 85.6706 112.494 97.545C112.333 98.5312 111.828 99.4284 111.068 100.077C110.307 100.725 109.342 101.083 108.343 101.086Z" fill="#F2F2F2"/>
<path d="M157.599 45.7704H143.043C142.489 45.7698 141.959 45.5497 141.567 45.1584C141.176 44.7672 140.956 44.2367 140.956 43.6833V42.8677C140.956 42.3144 141.176 41.7839 141.567 41.3927C141.959 41.0014 142.489 40.7813 143.043 40.7807H157.599C158.152 40.7813 158.682 41.0014 159.074 41.3927C159.465 41.7839 159.685 42.3144 159.686 42.8677V43.6834C159.685 44.2367 159.465 44.7672 159.074 45.1584C158.682 45.5497 158.152 45.7698 157.599 45.7704Z" fill="#E6E6E6"/>
<path d="M157.599 56.0759H143.043C142.489 56.0753 141.959 55.8552 141.567 55.4639C141.176 55.0727 140.956 54.5422 140.956 53.9888V53.1732C140.956 52.6199 141.176 52.0894 141.567 51.6981C141.959 51.3069 142.489 51.0868 143.043 51.0862H157.599C158.152 51.0868 158.682 51.3069 159.074 51.6981C159.465 52.0894 159.685 52.6199 159.686 53.1732V53.9888C159.685 54.5422 159.465 55.0727 159.074 55.4639C158.682 55.8552 158.152 56.0753 157.599 56.0759Z" fill="#E6E6E6"/>
<path d="M94.551 87.4857C98.9697 87.4857 102.552 83.9036 102.552 79.485C102.552 75.0663 98.9697 71.4843 94.551 71.4843C90.1324 71.4843 86.5503 75.0663 86.5503 79.485C86.5503 83.9036 90.1324 87.4857 94.551 87.4857Z" fill="white"/>
<path d="M98.3774 78.4414H95.5946V75.6586C95.5946 75.3818 95.4846 75.1164 95.2889 74.9206C95.0932 74.7249 94.8278 74.615 94.551 74.615C94.2742 74.615 94.0088 74.7249 93.8131 74.9206C93.6174 75.1164 93.5074 75.3818 93.5074 75.6586V78.4414H90.7246C90.4478 78.4414 90.1824 78.5514 89.9867 78.7471C89.791 78.9428 89.681 79.2082 89.681 79.485C89.681 79.7617 89.791 80.0272 89.9867 80.2229C90.1824 80.4186 90.4478 80.5285 90.7246 80.5285H93.5074V83.3114C93.5074 83.5881 93.6174 83.8536 93.8131 84.0493C94.0088 84.245 94.2742 84.3549 94.551 84.3549C94.8278 84.3549 95.0932 84.245 95.2889 84.0493C95.4846 83.8536 95.5946 83.5881 95.5946 83.3114V80.5285H98.3774C98.6542 80.5285 98.9196 80.4186 99.1153 80.2229C99.311 80.0272 99.421 79.7617 99.421 79.485C99.421 79.2082 99.311 78.9428 99.1153 78.7471C98.9196 78.5514 98.6542 78.4414 98.3774 78.4414Z" fill="#E6E6E6"/>
<path d="M104.639 5.91354H90.0289C89.6139 5.91307 89.216 5.748 88.9225 5.45455C88.6291 5.16109 88.464 4.76321 88.4635 4.34819V1.56535C88.464 1.15034 88.6291 0.752455 88.9225 0.458997C89.216 0.165538 89.6139 0.000467712 90.0289 0H104.639C105.054 0.000467712 105.452 0.165538 105.745 0.458997C106.039 0.752455 106.204 1.15034 106.204 1.56535V4.34819C106.204 4.76321 106.039 5.16109 105.745 5.45455C105.452 5.748 105.054 5.91307 104.639 5.91354Z" fill="#CCCCCC"/>
<path d="M157.513 32.6985H142.903C142.488 32.698 142.09 32.5329 141.797 32.2395C141.503 31.946 141.338 31.5481 141.338 31.1331V28.3503C141.338 27.9352 141.503 27.5374 141.797 27.2439C142.09 26.9505 142.488 26.7854 142.903 26.7849H157.513C157.928 26.7854 158.326 26.9505 158.619 27.2439C158.913 27.5374 159.078 27.9352 159.078 28.3503V31.1331C159.078 31.5481 158.913 31.946 158.619 32.2395C158.326 32.5329 157.928 32.698 157.513 32.6985Z" fill="#CCCCCC"/>
<path d="M30.8186 163.861H35.0833L36.4167 147.412H30.8179L30.8186 163.861Z" fill="#FFB8B8"/>
<path d="M29.7309 162.469L38.1295 162.469H38.1298C38.8327 162.468 39.5287 162.607 40.1781 162.876C40.8274 163.145 41.4175 163.539 41.9145 164.036C42.4115 164.533 42.8057 165.123 43.0747 165.772C43.3437 166.422 43.4821 167.118 43.4821 167.821V167.995L29.7312 167.995L29.7309 162.469Z" fill="#2F2E41"/>
<path d="M7.86015 163.861H12.1249L14.1539 147.412H7.85945L7.86015 163.861Z" fill="#FFB8B8"/>
<path d="M6.77247 162.469L15.171 162.469H15.1714C15.8742 162.468 16.5702 162.607 17.2196 162.876C17.869 163.145 18.459 163.539 18.956 164.036C19.453 164.533 19.8473 165.123 20.1162 165.772C20.3852 166.422 20.5237 167.118 20.5236 167.821V167.995L6.77273 167.995L6.77247 162.469Z" fill="#2F2E41"/>
<path d="M8.61681 158.665C8.18178 158.665 7.76269 158.501 7.4428 158.206C7.27108 158.05 7.13277 157.86 7.03619 157.648C6.93961 157.437 6.88675 157.208 6.88076 156.976L5.17047 95.679L29.4547 101.75L36.9473 124.227C37.9136 127.119 38.3318 130.166 38.1806 133.211L37.2503 154.999C37.2291 155.445 37.0367 155.866 36.7132 156.175C36.3897 156.483 35.9598 156.655 35.5129 156.654H31.4399C31.0195 156.653 30.6138 156.499 30.2972 156.223C29.9806 155.946 29.7744 155.565 29.7163 155.148L26.8052 131.097C26.5508 129.221 25.8944 127.422 24.8809 125.822L19.1519 116.751C19.1136 116.691 19.0575 116.644 18.9913 116.616C18.9251 116.589 18.852 116.582 18.7821 116.598C18.7121 116.613 18.6487 116.65 18.6005 116.703C18.5523 116.756 18.5216 116.823 18.5127 116.894L14.0168 156.928C13.9685 157.334 13.7786 157.71 13.4803 157.99C13.1821 158.27 12.7947 158.435 12.3864 158.458L8.71582 158.662C8.6828 158.664 8.64985 158.665 8.61681 158.665Z" fill="#2F2E41"/>
<path d="M25.4135 55.9933C30.1321 55.9933 33.9572 52.1682 33.9572 47.4496C33.9572 42.7311 30.1321 38.9059 25.4135 38.9059C20.695 38.9059 16.8698 42.7311 16.8698 47.4496C16.8698 52.1682 20.695 55.9933 25.4135 55.9933Z" fill="#FFB8B8"/>
<path d="M29.3383 104.243C29.1913 104.243 29.0449 104.224 28.9025 104.187L4.80826 98.0096C4.37748 97.8993 4.00534 97.6281 3.76835 97.2518C3.53137 96.8756 3.44753 96.4228 3.53411 95.9866L9.06749 66.1786C9.41224 64.4555 10.17 62.8419 11.2758 61.4763C12.3815 60.1106 13.8022 59.0337 15.4158 58.3381C16.988 57.6422 18.7074 57.3441 20.4222 57.47C22.1369 57.5958 23.7943 58.1419 25.2481 59.0599C25.5855 59.2704 25.9252 59.4998 26.2578 59.7421C27.5967 60.7297 28.6885 62.0141 29.4477 63.4945C30.2068 64.9749 30.6127 66.6111 30.6334 68.2747L31.0734 102.479C31.0764 102.709 31.0337 102.937 30.9479 103.151C30.8622 103.364 30.7349 103.559 30.5736 103.723C30.4123 103.887 30.22 104.017 30.008 104.106C29.796 104.196 29.5684 104.242 29.3383 104.243Z" fill="#6C63FF"/>
<path d="M7.28734 104.593C6.99992 104.17 6.80873 103.689 6.72725 103.185C6.64577 102.68 6.67598 102.163 6.81573 101.671C6.95549 101.179 7.2014 100.724 7.53615 100.337C7.8709 99.9509 8.28634 99.6424 8.75321 99.4337L7.68153 87.0494L13.3606 90.1274L13.5076 101.416C13.8062 102.223 13.7982 103.112 13.4851 103.914C13.1719 104.716 12.5755 105.376 11.8088 105.767C11.042 106.159 10.1583 106.256 9.32496 106.039C8.49163 105.823 7.76662 105.308 7.28734 104.593Z" fill="#FFB8B8"/>
<path d="M9.31626 97.7958C9.15601 97.7957 8.99642 97.7755 8.84118 97.7357C8.50729 97.6506 8.20262 97.4767 7.9594 97.2327C7.71619 96.9886 7.54347 96.6833 7.45953 96.3491L4.66862 85.2581C3.69327 81.3845 4.15822 77.2884 5.97698 73.732L11.824 62.2938C12.1936 60.9244 13.0867 59.755 14.3106 59.038C15.5345 58.321 16.9912 58.1138 18.3665 58.461C19.052 58.6341 19.6963 58.9415 20.2621 59.3655C20.8279 59.7895 21.3038 60.3216 21.6624 60.931C22.0284 61.549 22.2677 62.2337 22.3665 62.9452C22.4653 63.6566 22.4215 64.3806 22.2378 65.075L13.9145 83.6873L14.0133 94.8311C14.0159 95.2242 13.8977 95.6087 13.6747 95.9325C13.4517 96.2562 13.1347 96.5038 12.7664 96.6415L9.98106 97.6759C9.76836 97.7552 9.54323 97.7958 9.31626 97.7958Z" fill="#6C63FF"/>
<path d="M49.1582 100.038C48.6501 99.9799 48.1609 99.8111 47.7252 99.5436C47.2894 99.276 46.9175 98.9161 46.6359 98.4893C46.3542 98.0625 46.1695 97.5791 46.0949 97.0732C46.0203 96.5673 46.0574 96.0512 46.2038 95.5612L36.1183 88.2948L42.1559 85.9983L50.8076 93.2507C51.6145 93.5512 52.283 94.1372 52.6867 94.8977C53.0903 95.6582 53.2009 96.5404 52.9976 97.377C52.7943 98.2136 52.2911 98.9466 51.5835 99.437C50.8759 99.9274 50.0129 100.141 49.1582 100.038Z" fill="#FFB8B8"/>
<path d="M43.8785 94.7317C43.5811 94.7315 43.2879 94.6623 43.0218 94.5294L32.7952 89.41C29.2232 87.6221 26.422 84.5978 24.9125 80.8995L20.0574 69.0062C19.2607 67.8326 18.957 66.3929 19.2119 64.9975C19.4669 63.6021 20.26 62.3628 21.4202 61.5467C21.9999 61.1391 22.655 60.8509 23.3472 60.699C24.0394 60.5471 24.7549 60.5345 25.452 60.6619C26.1573 60.7887 26.8304 61.0543 27.4323 61.4431C28.0343 61.832 28.5531 62.3364 28.9586 62.9272L37.6359 81.3773L46.1465 88.5719C46.4462 88.8264 46.6605 89.1667 46.7605 89.547C46.8604 89.9272 46.8412 90.329 46.7054 90.6979L45.6724 93.4837C45.5375 93.849 45.2938 94.1642 44.9743 94.3868C44.653 94.6114 44.2705 94.7318 43.8785 94.7317Z" fill="#6C63FF"/>
<path d="M23.6195 56.1241C24.0734 56.3227 25.003 52.7056 24.5866 51.9822C23.9673 50.9063 24.0039 50.914 23.5928 50.2022C23.1817 49.4904 23.0897 48.5161 23.6221 47.8898C24.1545 47.2635 25.3864 47.3465 25.6294 48.1318C25.4731 46.6403 26.9484 45.4413 28.4098 45.1044C29.8712 44.7674 31.4126 44.9766 32.8821 44.6768C34.5874 44.3288 36.3617 42.8994 35.6813 41.0241C35.5646 40.7119 35.3897 40.4246 35.1661 40.1774C34.38 39.2935 33.2803 38.9161 32.2052 38.5512C29.9684 37.792 27.6705 37.0232 25.3099 37.1071C23.3649 37.2087 21.4918 37.8752 19.9197 39.0249C18.3476 40.1746 17.1447 41.7577 16.4583 43.5804C16.2956 44.0364 16.1696 44.5046 16.0814 44.9806C15.2712 49.3373 17.8011 53.6345 21.9102 55.2935L23.6195 56.1241Z" fill="#2F2E41"/>
<path opacity="0.2" d="M13.5316 95.0839L13.7253 83.6293L19.793 71.4297L14.923 83.9525L13.5316 95.0839Z" fill="black"/>
<path d="M68.5544 123.83L42.9389 113.188C42.3774 112.956 41.8761 112.6 41.4731 112.146C41.07 111.692 40.7759 111.151 40.6131 110.566C40.4457 109.975 40.4156 109.352 40.525 108.747C40.6344 108.142 40.8804 107.57 41.2443 107.074C47.7137 98.1662 51.9953 87.8608 53.7429 76.9914C53.8375 76.3837 54.0695 75.8057 54.4212 75.3012C54.7729 74.7967 55.235 74.3791 55.7725 74.0801C56.3019 73.7826 56.8923 73.6099 57.4985 73.575C58.1048 73.5401 58.711 73.644 59.2711 73.8787L84.8866 84.5216C85.77 84.8916 86.4934 85.5631 86.9278 86.4166C87.3623 87.27 87.4798 88.25 87.2592 89.182C84.3958 100.832 79.7661 111.975 73.531 122.223C73.0262 123.037 72.2489 123.646 71.3375 123.94C70.4262 124.234 69.4399 124.195 68.5544 123.83Z" fill="#E6E6E6"/>
<path d="M58.4703 75.8061C58.2014 75.6933 57.9102 75.6433 57.6191 75.66C57.3279 75.6766 57.0444 75.7595 56.7901 75.9022C56.5286 76.0481 56.3039 76.2517 56.133 76.4975C55.9621 76.7433 55.8495 77.0248 55.8038 77.3207C54.004 88.5149 49.5944 99.1283 42.9317 108.302C42.7543 108.543 42.6342 108.822 42.5806 109.116C42.527 109.41 42.5412 109.713 42.6223 110.001C42.7006 110.282 42.842 110.542 43.0356 110.76C43.2292 110.978 43.47 111.149 43.7397 111.26L69.3552 121.903C69.7799 122.08 70.2534 122.1 70.6916 121.96C71.1297 121.82 71.504 121.529 71.7477 121.139C77.8722 111.072 82.4198 100.127 85.2325 88.6834C85.3369 88.2354 85.279 87.765 85.069 87.3558C84.859 86.9466 84.5106 86.6253 84.0858 86.4489L58.4703 75.8061Z" fill="white"/>
<path d="M72.1095 99.4976L58.6675 93.9127C58.1567 93.6998 57.7513 93.2931 57.5401 92.7816C57.3289 92.2702 57.3292 91.6958 57.5409 91.1846L57.8539 90.4315C58.0667 89.9207 58.4735 89.5152 58.985 89.304C59.4964 89.0929 60.0707 89.0932 60.582 89.3049L74.0239 94.8898C74.5347 95.1027 74.9401 95.5095 75.1513 96.0209C75.3625 96.5323 75.3622 97.1067 75.1505 97.6179L74.8375 98.3711C74.6247 98.8818 74.2179 99.2873 73.7065 99.4985C73.195 99.7097 72.6207 99.7094 72.1095 99.4976Z" fill="#6C63FF"/>
<path d="M68.1554 109.014L54.7134 103.43C54.2027 103.217 53.7972 102.81 53.586 102.298C53.3748 101.787 53.3751 101.213 53.5869 100.701L53.8998 99.9482C54.1127 99.4375 54.5195 99.032 55.0309 98.8208C55.5424 98.6096 56.1167 98.6099 56.6279 98.8217L70.0699 104.407C70.5807 104.619 70.9861 105.026 71.1973 105.538C71.4085 106.049 71.4082 106.623 71.1965 107.135L70.8835 107.888C70.6707 108.399 70.2639 108.804 69.7524 109.015C69.241 109.226 68.6667 109.226 68.1554 109.014Z" fill="#6C63FF"/>
<path d="M77.4957 86.1227C77.2945 86.1226 77.0952 86.0835 76.9088 86.0078L63.364 80.5316C62.9795 80.3756 62.6725 80.0734 62.5104 79.6914C62.3483 79.3094 62.3444 78.8786 62.4995 78.4937L63.5426 75.9137C63.6983 75.5288 64.0004 75.2215 64.3826 75.0594C64.7648 74.8974 65.1957 74.8937 65.5806 75.0493L79.1254 80.5255C79.5099 80.6815 79.8169 80.9836 79.979 81.3656C80.1411 81.7477 80.145 82.1784 79.9899 82.5633L78.9468 85.1434C78.8296 85.4323 78.629 85.6798 78.3705 85.8542C78.1121 86.0287 77.8075 86.1221 77.4957 86.1227Z" fill="#CCCCCC"/>
<path d="M49.0476 168.188H0.347856C0.255599 168.188 0.167125 168.151 0.10189 168.086C0.036654 168.021 0 167.933 0 167.84C0 167.748 0.036654 167.66 0.10189 167.594C0.167125 167.529 0.255599 167.492 0.347856 167.492H49.0476C49.1399 167.492 49.2284 167.529 49.2936 167.594C49.3588 167.66 49.3955 167.748 49.3955 167.84C49.3955 167.933 49.3588 168.021 49.2936 168.086C49.2284 168.151 49.1399 168.188 49.0476 168.188Z" fill="#CCCCCC"/>
</g>
<defs>
<clipPath id="clip0_368_766">
<rect width="169" height="168.188" fill="white"/>
</clipPath>
</defs>
</svg>
